<svg xmlns="http://www.w3.org/2000/svg" viewBox="0 0 240.24 272.54"><defs><style>.cls-1{fill:#fff59c;}.cls-2,.cls-3{fill:none;stroke:#fff59c;stroke-linecap:round;stroke-linejoin:round;}.cls-2{stroke-width:7.84px;}.cls-3{stroke-width:9.98px;}</style></defs><title>アセット 2</title><g id="レイヤー_2" data-name="レイヤー 2"><g id="レイヤー_1-2" data-name="レイヤー 1"><path class="cls-1" d="M215.28,10.15,101.52,45c-13.78,3.93-25,18.3-25,32.09V196.29s-8.37-5.64-27-3C22.19,197.18,0,218.19,0,240.22s22.19,35.55,49.56,31.66S97,247.65,97,225.6V123.3c0-9.58,11.52-13.69,11.52-13.69L208.7,78.22s11.08-3.72,11.08,6.54v81.71s-10.37-6-28.93-3.7c-27.26,3.3-49.36,23.79-49.36,45.73s22.1,35.85,49.36,32.54,49.39-23.79,49.39-45.74V28C240.24,14.21,229.05,6.22,215.28,10.15Z"/><path class="cls-2" d="M49.35,76.62S43.46,37.4,82.69,22.36"/><path class="cls-3" d="M20.67,74S13.18,24.11,63.08,5"/></g></g></svg>