<svg xmlns="http://www.w3.org/2000/svg" viewBox="0 0 296.77 487.73"><defs><style>.cls-1{fill:#8c8c8c;}.cls-2{fill:#ccc;}.cls-3{fill:none;stroke:#333;stroke-linecap:round;stroke-linejoin:round;stroke-width:3.91px;opacity:0.26;}</style></defs><title>アセット 33</title><g id="レイヤー_2" data-name="レイヤー 2"><g id="レイヤー_1-2" data-name="レイヤー 1"><path class="cls-1" d="M159.3,380.33,30.44,313.48a8.57,8.57,0,0,0-11.51,3.64L6.77,340.58a8.56,8.56,0,0,0,3.64,11.5L34.8,364.74a8.93,8.93,0,0,1,3.82,12.06L.94,449.44a8.46,8.46,0,0,0,3.6,11.36l50.11,26A8.45,8.45,0,0,0,66,483.19l37.68-72.63a9,9,0,0,1,12.06-3.83l23.53,12.21a8.55,8.55,0,0,0,11.5-3.65L163,391.84A8.56,8.56,0,0,0,159.3,380.33Z"/><path class="cls-2" d="M266,1.88l21.76,11.28a16.67,16.67,0,0,1,7.2,22.3L131.18,360.23,66.11,326.48,243.8,8.54A16.66,16.66,0,0,1,266,1.88Z"/><path class="cls-3" d="M41.39,374.74l61.59,32S66.83,397.85,41.39,374.74Z"/></g></g></svg>