<svg xmlns="http://www.w3.org/2000/svg" viewBox="0 0 1059 843"><defs><style>.cls-1{fill:#fff;}.cls-2{fill:#999;opacity:0.29;}.cls-3{fill:#ffcb64;}.cls-4{fill:#fff59c;}</style></defs><title>アセット 26</title><g id="レイヤー_2" data-name="レイヤー 2"><g id="レイヤー_1-2" data-name="レイヤー 1"><rect class="cls-1" width="1059" height="843" rx="45.1"/><rect class="cls-2" x="85" y="231" width="863" height="213" rx="30.75"/><rect class="cls-1" x="86" y="232.35" width="852" height="194.13" rx="29.16"/><path d="M134.69,122.76V140a22.83,22.83,0,0,0,7.86,3.72,48.68,48.68,0,0,0,11.6,1H170.5a16.64,16.64,0,0,0-1.65,5.38H150.21a36,36,0,0,1-9.11-1,25.16,25.16,0,0,1-8.28-3.93L125,151.75,121,146.16l7.66-4.77V128.14h-5.79v-5.38Zm1.65-13-3.72,5.17a65.41,65.41,0,0,0-7.87-5.79l3.31-5Q132.62,107,136.34,109.72Zm31.26.21a164.55,164.55,0,0,1-20.7,2.69v5.59h22.36v5.38h-6.83v19.25H155.8V123.59h-9.11q-1.65,11.6-6.62,18.63a26.62,26.62,0,0,0-5-4.55,36.18,36.18,0,0,0,4.56-10.35,82.48,82.48,0,0,0,1.24-14.7v-6.21l4.14,1a70.9,70.9,0,0,0,8.28-.83,84.43,84.43,0,0,0,11.8-2.48Z"/><path d="M207.56,104.75c1.66,1.93,3.38,3.87,5.18,5.8a198.22,198.22,0,0,1-21.12,13.66q-1.86,1-1.86,1.86c0,.56.75,1.32,2.27,2.28q8.28,5,21.12,18.22c-1.93,1.66-3.93,3.24-6,4.76a136.62,136.62,0,0,0-22.57-20.91,10.34,10.34,0,0,1-3.31-3.1,3.21,3.21,0,0,1,.21-3.32,89.87,89.87,0,0,1,11.59-8.07A132.34,132.34,0,0,0,207.56,104.75Z"/><path d="M265.94,111.38a17.84,17.84,0,0,1,6.22,6.62,21.83,21.83,0,0,1,2.07,10.14,18.62,18.62,0,0,1-5.59,13.67q-5,5-15.53,7.66a27.8,27.8,0,0,0-2.69-6.42q14.49-2.07,16.77-13a13.22,13.22,0,0,0-2.07-10.77q-4.35-5.17-9.94-5.17-2.91,15.53-8.9,25.05-4.77,7.45-9.73,5.79-5.38-1.65-7-11-1.66-11.18,5.79-18.63a23.92,23.92,0,0,1,15.32-6.83Q260.36,107.66,265.94,111.38Zm-17.39,2.89a15.08,15.08,0,0,0-7.86,3.73,15.07,15.07,0,0,0-5,11.8,13.24,13.24,0,0,0,1.24,6c.83,1.53,1.66,2.21,2.48,2.08s1.59-1,2.28-2.49A79.6,79.6,0,0,0,248.55,114.27Z"/><path class="cls-3" d="M327.23,112.82a143.66,143.66,0,0,1-17.6,15.74l-2.28-3.31q-.83,12.42-4.14,17.18-3.1,4.56-13.25,8.49a25.89,25.89,0,0,0-3.93-6.63q9.11-2.68,11.59-7t2.48-17.8h7.46v2.07a58.64,58.64,0,0,0,8.07-7.25H284.58v-6.62h37.06l.82-.42Z"/><path class="cls-3" d="M380.64,114.69v6.42H368q-2.07,15.11-7.45,20.49-5.38,5.6-15.32,9.52a14.86,14.86,0,0,0-3.73-6.41q9.94-3.53,14.08-8.49,3.93-5.17,5.17-15.11H347.93a65.28,65.28,0,0,1-9.73,11.38,17.4,17.4,0,0,0-5.18-5.38,54.21,54.21,0,0,0,15.12-22.36l7,2.28c-1.24,3-2.41,5.59-3.51,7.66Zm-1.66-2.9-3.1,2.69-3.94-3.93c-1-.83-1.58-1.38-1.86-1.66l2.9-2.69Q376.51,109.31,379,111.79Zm4.56-4.56-3.11,2.9a59.89,59.89,0,0,0-6-5.59l2.9-2.9A76.38,76.38,0,0,1,383.54,107.23Z"/><path class="cls-3" d="M433.23,112.82a143.66,143.66,0,0,1-17.6,15.74l-2.28-3.31q-.83,12.42-4.14,17.18-3.1,4.56-13.25,8.49a25.89,25.89,0,0,0-3.93-6.63q9.11-2.68,11.59-7t2.48-17.8h7.46v2.07a58.64,58.64,0,0,0,8.07-7.25H390.58v-6.62h37.06l.82-.42Z"/><path class="cls-3" d="M486.64,114.69v6.42H474q-2.07,15.11-7.45,20.49-5.38,5.6-15.32,9.52a14.86,14.86,0,0,0-3.73-6.41q9.94-3.53,14.08-8.49,3.93-5.17,5.17-15.11H453.93a65.28,65.28,0,0,1-9.73,11.38,17.4,17.4,0,0,0-5.18-5.38,54.21,54.21,0,0,0,15.12-22.36l7,2.28c-1.24,3-2.41,5.59-3.51,7.66Zm-1.66-2.9-3.1,2.69-3.94-3.93c-1-.83-1.58-1.38-1.86-1.66l2.9-2.69Q482.51,109.31,485,111.79Zm4.56-4.56-3.11,2.9a59.89,59.89,0,0,0-6-5.59l2.9-2.9A76.38,76.38,0,0,1,489.54,107.23Z"/><path d="M538,122.14q-5,11.8-11.38,18.22-7.46,7.45-22.36,11a20.86,20.86,0,0,0-3.32-7q13.88-2.68,20.5-9.31a37.92,37.92,0,0,0,6.83-9.94H497.2v-6.21h35.61l.83-.42Zm-6.83-15.32V113H502.58v-6.21Z"/><path d="M575.66,150.3h-7.45v-24A94.63,94.63,0,0,1,550,136.63a17.3,17.3,0,0,0-3.93-6.21,87.87,87.87,0,0,0,35.81-26.5l6.21,5q-6.83,7-12.42,11.8Z"/><path d="M642.33,114.89q-5.6,15.74-12.22,22.57-7.67,8.07-21.32,13.25a34.66,34.66,0,0,0-3.73-7q11.6-3.3,18-9.11,6.63-6.21,10.56-17.39H603.2v-6.62h33.33l.62-.42Zm2.9-4.14-2.7,2.7c-1.65-1.8-3.52-3.66-5.59-5.59l2.49-2.49C641.77,107.44,643.71,109.24,645.23,110.75Zm4.14-3.93-2.9,2.9-5.59-5.59,2.69-2.49A69.12,69.12,0,0,1,649.37,106.82Z"/><path d="M697,122.14q-5,11.8-11.38,18.22-7.46,7.45-22.36,11a20.86,20.86,0,0,0-3.32-7q13.88-2.68,20.5-9.31a37.92,37.92,0,0,0,6.83-9.94h-31v-6.21h35.61l.83-.42Zm-6.83-15.32V113H661.58v-6.21Z"/><path d="M727.42,115.93l-5,6A83.22,83.22,0,0,0,710,112.2l4.34-5.59A83.79,83.79,0,0,1,727.42,115.93Zm25.25,4.76Q738.39,140,713.75,149.88l-3.52-7.24q12.63-4.77,20.29-10.35,7.46-5.59,17.19-17A30.94,30.94,0,0,0,752.67,120.69Z"/><path d="M803.19,125.87l.83,6.62-17.81,1.66,1.87,16.15-7.46.62L779,134.77l-18.43,1.66-.62-6.63,18.22-1.66-.83-7.24-13.66,1.24-.62-6.62,13.45-1.25-1.24-8.9,7.45-.62,1,8.9,13.66-1.24L798,119l-13.45,1.24.83,7.24Z"/><path d="M833.42,115.93l-5,6A83.22,83.22,0,0,0,816,112.2l4.34-5.59A83.79,83.79,0,0,1,833.42,115.93Zm25.25,4.76Q844.39,140,819.75,149.88l-3.52-7.24q12.63-4.77,20.29-10.35,7.46-5.59,17.19-17A30.94,30.94,0,0,0,858.67,120.69Z"/><path d="M900.7,113l.83-.41,4.14,4.34q-6.63,16.77-13.46,23-6.83,6.41-19.87,10.55a31.29,31.29,0,0,0-4.35-6.41q12.84-3.53,18.84-8.7T897,119.24H883.93a60.06,60.06,0,0,1-13.45,14.91,13.57,13.57,0,0,0-5.39-5,52.37,52.37,0,0,0,10.15-10.56,59.36,59.36,0,0,0,7-13.25l7.66,2.28L887.25,113Zm8.28-1-2.9,2.89-6.21-5.59,2.9-2.89C904.7,108.06,906.77,109.93,909,112Zm4.56-4.77-3.11,3.32-3.93-3.94q-1.46-1.23-2.07-1.65l2.9-3.11Q909.4,103.51,913.54,107.23Z"/><path class="cls-3" d="M138.07,297.12a1.88,1.88,0,0,0,.4,2l14.36,14.36-32.72,32.73a1.86,1.86,0,0,0,0,2.62l21,21a1.84,1.84,0,0,0,2.62,0l32.72-32.72,14.42,14.42A1.85,1.85,0,0,0,194,350.2l.06-52.34a1.88,1.88,0,0,0-.55-1.31,1.86,1.86,0,0,0-1.31-.55l-52.42,0A1.85,1.85,0,0,0,138.07,297.12Z"/><path d="M264.62,312.94l-7.39,4.37c-1.38-2.39-2.69-4-3.94-4.69a10.54,10.54,0,0,0-11.33.9,6.66,6.66,0,0,0-2.5,5.32q0,4.41,6.56,7.11l6,2.46q7.34,3,10.74,7.24a16.37,16.37,0,0,1,3.4,10.49,18.42,18.42,0,0,1-5.55,13.75,19,19,0,0,1-13.87,5.47,18.57,18.57,0,0,1-13-4.65q-5-4.65-6.28-13.09l9.21-2c.42,3.55,1.15,6,2.19,7.35A10.41,10.41,0,0,0,254.19,354a9.88,9.88,0,0,0,2.81-7.22,10.32,10.32,0,0,0-.49-3.23,8.29,8.29,0,0,0-1.52-2.69,12.42,12.42,0,0,0-2.68-2.31,26.14,26.14,0,0,0-3.91-2.05l-5.82-2.42q-12.37-5.24-12.38-15.31a14.52,14.52,0,0,1,5.2-11.37,18.77,18.77,0,0,1,12.93-4.61Q258.76,302.78,264.62,312.94Z"/><path d="M284.54,334.42v29.85h-8.79V334.42H272v-8.2h3.75v-14h8.79v14h6.83v8.2Z"/><path d="M325.4,326.22h8.82v38H325.4v-4q-5.43,5.09-11.68,5.08a16.84,16.84,0,0,1-13.05-5.7,21.24,21.24,0,0,1-5.12-14.54,20.55,20.55,0,0,1,5.12-14.25,16.5,16.5,0,0,1,12.81-5.71q6.64,0,11.92,5.47Zm-20.86,18.9a13.22,13.22,0,0,0,2.93,8.91,9.58,9.58,0,0,0,7.57,3.48,10.11,10.11,0,0,0,7.9-3.36,14.49,14.49,0,0,0,0-17.66,10,10,0,0,0-7.82-3.4,9.74,9.74,0,0,0-7.58,3.44A12.69,12.69,0,0,0,304.54,345.12Z"/><path d="M345.32,326.22h8.79v3.4a16.67,16.67,0,0,1,4.29-3.48,9.9,9.9,0,0,1,4.54-1,14.22,14.22,0,0,1,7.26,2.27l-4,8.05a8.41,8.41,0,0,0-4.89-1.8q-7.19,0-7.18,10.86v19.73h-8.79Z"/><path d="M418.25,312.51v51.76h-9.1V312.51H395.28V304h36.8v8.56Z"/><path d="M485.32,338.56,504,364.27H492.86l-17.23-24.69H474v24.69h-9.1V304h10.66q12,0,17.27,4.5a16.51,16.51,0,0,1,5.86,13.2,17.16,17.16,0,0,1-3.67,11A16.35,16.35,0,0,1,485.32,338.56ZM474,331.65h2.89q12.93,0,12.93-9.88,0-9.27-12.58-9.26H474Z"/><path d="M539.42,326.22h8.83v38h-8.83v-4q-5.43,5.09-11.68,5.08a16.84,16.84,0,0,1-13-5.7,21.23,21.23,0,0,1-5.11-14.54,20.54,20.54,0,0,1,5.11-14.25,16.52,16.52,0,0,1,12.82-5.71q6.63,0,11.91,5.47Zm-20.86,18.9a13.27,13.27,0,0,0,2.93,8.91,9.6,9.6,0,0,0,7.58,3.48,10.1,10.1,0,0,0,7.89-3.36,14.46,14.46,0,0,0,0-17.66,10,10,0,0,0-7.81-3.4,9.71,9.71,0,0,0-7.58,3.44A12.65,12.65,0,0,0,518.56,345.12Z"/><path d="M568.4,334.42v29.85h-8.78V334.42h-3.75v-8.2h3.75v-14h8.78v14h6.84v8.2Z"/><path d="M693.78,361.87h17.69v6.74h-31.9l16.49-20q2.43-3,4.07-5.17a36.65,36.65,0,0,0,2.51-3.66,10.28,10.28,0,0,0,1.75-5.2,7.41,7.41,0,0,0-2.33-5.56,8,8,0,0,0-5.79-2.25q-7.2,0-8.24,8.52h-7.14q1.73-15,15.17-15A15.33,15.33,0,0,1,707,324.43a13.4,13.4,0,0,1,4.43,10.21,15.54,15.54,0,0,1-2.06,7.6,36.12,36.12,0,0,1-3.07,4.6c-1.34,1.78-3,3.87-5.09,6.29Z"/><path d="M725.53,359.71l6.15,2.41-8.77,17.56-4.67-1.94Z"/><path d="M769.46,327.82H754.81l-2.34,7.87,1-.09.88,0a15,15,0,0,1,11.35,4.67,17.89,17.89,0,0,1-.58,24.27,17.6,17.6,0,0,1-12.71,4.87q-9.43,0-14.89-8.86l5.42-4.59a16.61,16.61,0,0,0,4.52,5.38,10.45,10.45,0,0,0,12.8-1.47,10.6,10.6,0,0,0,2.92-7.54,10.11,10.11,0,0,0-2.89-7.44,9.66,9.66,0,0,0-7.23-3,10.56,10.56,0,0,0-8.34,4.22h-2.37l7.48-25h19.63Z"/><path d="M777.88,344.55q0-11.35,5.29-18.12,4.74-6.12,11.48-6.12t11.47,6.12q5.29,6.76,5.29,18.43t-5.29,18.39q-4.74,6.12-11.44,6.13t-11.51-6.13Q777.89,356.49,777.88,344.55Zm7,0q0,7.91,2.74,13.14t7,5.13q4.22,0,7-5.13t2.77-12.89q0-7.79-2.77-12.92t-7-5.11q-4.18,0-6.95,5.11A26.16,26.16,0,0,0,784.93,344.58Z"/><path d="M816.77,344.55q0-11.35,5.29-18.12,4.73-6.12,11.47-6.12T845,326.43q5.28,6.76,5.29,18.43T845,363.25q-4.74,6.12-11.45,6.13t-11.5-6.13Q816.77,356.49,816.77,344.55Zm7,0q0,7.91,2.74,13.14t7,5.13q4.22,0,7-5.13t2.77-12.89q0-7.79-2.77-12.92t-7-5.11q-4.18,0-6.95,5.11A26.16,26.16,0,0,0,823.81,344.58Z"/><path d="M868.53,373.26h-5.79V348.65h5.79v1.82a6.13,6.13,0,0,1,5.06-2.33,8,8,0,0,1,3.28.68,8.42,8.42,0,0,1,2.64,1.88,8.62,8.62,0,0,1,1.74,2.78,9.28,9.28,0,0,1,.63,3.42,9.06,9.06,0,0,1-.63,3.4,8.78,8.78,0,0,1-1.73,2.75,7.77,7.77,0,0,1-2.6,1.85,8,8,0,0,1-3.27.68,6.84,6.84,0,0,1-5.12-2.12Zm7.3-16.36a3.74,3.74,0,0,0-.28-1.45,3.46,3.46,0,0,0-.78-1.2,4.05,4.05,0,0,0-1.2-.82,3.67,3.67,0,0,0-1.49-.3,3.5,3.5,0,0,0-1.44.29,3.75,3.75,0,0,0-1.17.8,4.2,4.2,0,0,0-.8,1.2,3.59,3.59,0,0,0-.3,1.45,3.67,3.67,0,0,0,.29,1.44,3.53,3.53,0,0,0,.8,1.17,4,4,0,0,0,1.2.8,3.75,3.75,0,0,0,2.89,0,3.69,3.69,0,0,0,1.17-.8,4.08,4.08,0,0,0,.8-1.19A3.26,3.26,0,0,0,875.83,356.9Z"/><path d="M891.63,353.48v11.58h-5.79V353.48h-1.92v-4.83h1.92v-4.93h5.79v4.93h3.3v4.83Z"/><rect class="cls-2" x="101" y="492" width="863" height="138" rx="24.75"/><rect class="cls-1" x="102" y="492.87" width="852" height="125.77" rx="23.47"/><path class="cls-4" d="M156.3,530.84a1.35,1.35,0,0,0,.3,1.5l10.7,10.71-24.4,24.4a1.39,1.39,0,0,0,0,2L158.54,585a1.38,1.38,0,0,0,2,0l24.4-24.4,10.75,10.75a1.38,1.38,0,0,0,2.36-1l0-39a1.38,1.38,0,0,0-.4-1,1.4,1.4,0,0,0-1-.41l-39.09,0A1.37,1.37,0,0,0,156.3,530.84Z"/><path d="M261.41,553.93,255.6,557c-.92-1.88-2-2.81-3.41-2.81a2.33,2.33,0,0,0-1.65.64,2.14,2.14,0,0,0-.69,1.64c0,1.17,1.35,2.32,4.06,3.47q5.59,2.4,7.53,4.43a7.62,7.62,0,0,1,1.94,5.47,9.58,9.58,0,0,1-3.25,7.38,11.08,11.08,0,0,1-7.62,2.81q-7.66,0-10.85-7.47l6-2.78a13,13,0,0,0,1.91,2.78,4.34,4.34,0,0,0,3.06,1.19c2.38,0,3.56-1.08,3.56-3.25,0-1.25-.91-2.42-2.75-3.5-.71-.35-1.41-.7-2.12-1l-2.16-1a13.16,13.16,0,0,1-4.31-3,7.41,7.41,0,0,1-1.59-4.91,8.69,8.69,0,0,1,2.71-6.56,9.56,9.56,0,0,1,6.75-2.6Q258.57,547.89,261.41,553.93Z"/><path d="M268.26,563.74A15.13,15.13,0,0,1,273,552.52a16.65,16.65,0,0,1,23.07,0,16.32,16.32,0,0,1,0,22.91,16.16,16.16,0,0,1-11.66,4.59,15.45,15.45,0,0,1-11.47-4.69A15.75,15.75,0,0,1,268.26,563.74Zm7.18.12a10.28,10.28,0,0,0,2.44,7.22,9.47,9.47,0,0,0,13.19,0,11.41,11.41,0,0,0,0-14.18,9.36,9.36,0,0,0-13.13,0A9.79,9.79,0,0,0,275.44,563.86Z"/><path d="M308.16,548.74h7v2.81a14.65,14.65,0,0,1,3.47-2.87,8.42,8.42,0,0,1,3.85-.79,9.33,9.33,0,0,1,8.15,4.5,10.56,10.56,0,0,1,9-4.5q10.28,0,10.28,12.47v18.82h-7.06V562.27q0-4.38-1.06-6.19a3.85,3.85,0,0,0-3.6-1.84,4.58,4.58,0,0,0-4.23,2.19c-.89,1.45-1.33,3.8-1.33,7v15.72h-7.06V562.36q0-8.11-4.69-8.12a4.7,4.7,0,0,0-4.33,2.22c-.9,1.48-1.36,3.81-1.36,7v15.72h-7Z"/><path d="M386.51,565.61H364.69a9.25,9.25,0,0,0,2.44,6,7.43,7.43,0,0,0,5.53,2.19,7.25,7.25,0,0,0,4.35-1.25,17.92,17.92,0,0,0,3.84-4.63l5.94,3.32a23.72,23.72,0,0,1-2.91,4A15.22,15.22,0,0,1,380.6,578a13.11,13.11,0,0,1-3.78,1.58,18.61,18.61,0,0,1-4.41.5,14.36,14.36,0,0,1-10.94-4.37q-4.12-4.41-4.12-11.69t4-11.69A13.79,13.79,0,0,1,372,547.89q6.72,0,10.62,4.29T386.54,564Zm-7.22-5.75q-1.47-5.62-7.1-5.62a7.28,7.28,0,0,0-2.4.39,6.81,6.81,0,0,0-2.05,1.12,7.07,7.07,0,0,0-1.58,1.77,8.23,8.23,0,0,0-1,2.34Z"/><path d="M421,526.39v52.79h-7V526.39Z"/><path d="M428.82,536.08a4.58,4.58,0,0,1,4.56-4.53,4.45,4.45,0,0,1,3.25,1.34,4.32,4.32,0,0,1,1.34,3.22,4.4,4.4,0,0,1-1.34,3.25,4.31,4.31,0,0,1-3.22,1.35,4.42,4.42,0,0,1-3.25-1.35A4.47,4.47,0,0,1,428.82,536.08Zm8.09,12.66v30.44h-7V548.74Z"/><path d="M453.1,555.3v23.88H446V555.3h-2.5v-6.56H446V537c0-3.83.66-6.54,2-8.13,1.83-2.2,4.5-3.31,8-3.31a14,14,0,0,1,4.72,1.09v7.19l-.72-.37a8.85,8.85,0,0,0-3.75-1.16,2.54,2.54,0,0,0-2.53,1.34,12.94,12.94,0,0,0-.66,5.07v10h7.66v6.56Z"/><path d="M492.54,565.61H470.72a9.25,9.25,0,0,0,2.44,6,7.43,7.43,0,0,0,5.53,2.19,7.25,7.25,0,0,0,4.35-1.25,17.92,17.92,0,0,0,3.84-4.63l5.94,3.32a23.72,23.72,0,0,1-2.91,4,15.22,15.22,0,0,1-3.28,2.75,13.11,13.11,0,0,1-3.78,1.58,18.54,18.54,0,0,1-4.41.5,14.33,14.33,0,0,1-10.93-4.37q-4.12-4.41-4.13-11.69t4-11.69a13.79,13.79,0,0,1,10.69-4.41q6.72,0,10.62,4.29T492.57,564Zm-7.22-5.75q-1.47-5.62-7.1-5.62a7.28,7.28,0,0,0-2.4.39,6.94,6.94,0,0,0-2.05,1.12,7.26,7.26,0,0,0-1.58,1.77,8.52,8.52,0,0,0-1,2.34Z"/><rect class="cls-2" x="101" y="661" width="863" height="138" rx="24.75"/><rect class="cls-1" x="102" y="661.87" width="852" height="125.77" rx="23.47"/><path class="cls-4" d="M156.3,699.84a1.35,1.35,0,0,0,.3,1.5l10.7,10.71-24.4,24.4a1.39,1.39,0,0,0,0,2L158.54,754a1.38,1.38,0,0,0,2,0l24.4-24.4,10.75,10.75a1.38,1.38,0,0,0,2.36-1l0-39a1.38,1.38,0,0,0-.4-1,1.4,1.4,0,0,0-1-.41l-39.09,0A1.37,1.37,0,0,0,156.3,699.84Z"/><path d="M261.41,727.61l14.94,20.57h-8.91l-13.78-19.75h-1.31v19.75h-7.28V699.93h8.53q9.56,0,13.81,3.59a13.2,13.2,0,0,1,4.69,10.56,13.67,13.67,0,0,1-2.94,8.81A13.05,13.05,0,0,1,261.41,727.61Zm-9.06-5.53h2.31q10.35,0,10.35-7.9,0-7.41-10.07-7.41h-2.59Z"/><path d="M311.94,736.46H291.29l-5.38,11.72h-7.84l23.87-51.29,23,51.29h-8Zm-3-6.85-7.15-16.4-7.5,16.4Z"/><path d="M355.1,706.77H338.29v11.59h16.22v6.85H338.29v23H331V699.93H355.1Z"/><path d="M399.19,702.52v8.62q-6.31-5.28-13.06-5.28a16.61,16.61,0,0,0-12.53,5.35,18,18,0,0,0-5.13,13A17.57,17.57,0,0,0,373.6,737a16.92,16.92,0,0,0,12.56,5.22,15.46,15.46,0,0,0,6.53-1.25,18.87,18.87,0,0,0,3.11-1.69,35.1,35.1,0,0,0,3.39-2.56v8.78a26.31,26.31,0,0,1-13.12,3.53,24.24,24.24,0,0,1-17.66-7.22,23.94,23.94,0,0,1-7.28-17.56,24.78,24.78,0,0,1,6.09-16.44A24.28,24.28,0,0,1,386.63,699,24.67,24.67,0,0,1,399.19,702.52Z"/><path d="M424.72,727.61l14.94,20.57h-8.9L417,728.43h-1.31v19.75h-7.28V699.93h8.53q9.57,0,13.81,3.59a13.2,13.2,0,0,1,4.69,10.56,13.67,13.67,0,0,1-2.94,8.81A13,13,0,0,1,424.72,727.61Zm-9.06-5.53H418q10.35,0,10.35-7.9,0-7.41-10.06-7.41h-2.6Z"/><path d="M444.51,723.83a23.67,23.67,0,0,1,7.46-17.5A24.61,24.61,0,0,1,469.85,699a25.21,25.21,0,0,1,25.09,25.09,23.75,23.75,0,0,1-7.43,17.66,25.51,25.51,0,0,1-34.82.81Q444.5,735.43,444.51,723.83Zm7.34.1a17.44,17.44,0,0,0,5.37,13.15,17.8,17.8,0,0,0,25.16-.09,18.73,18.73,0,0,0,.06-25.88,17,17,0,0,0-12.68-5.25A17.18,17.18,0,0,0,457,711.11,17.41,17.41,0,0,0,451.85,723.93Z"/><path d="M754.26,537.12h-7.82l3.75-6.39h10.9V576h-6.83Z"/><path d="M777.58,553.05q0-10.8,5-17.25,4.51-5.84,10.93-5.83c4.27,0,7.92,1.94,10.92,5.83q5,6.44,5,17.55t-5,17.52c-3,3.88-6.64,5.83-10.89,5.83s-7.91-2-11-5.83Q777.58,564.42,777.58,553.05Zm6.71,0a26.78,26.78,0,0,0,2.61,12.51c1.73,3.26,4,4.9,6.65,4.9s4.89-1.64,6.65-4.9,2.63-7.33,2.63-12.27A25.73,25.73,0,0,0,800.2,541q-2.64-4.86-6.65-4.86T786.93,541A25,25,0,0,0,784.29,553.08Z"/><path d="M814.61,553.05q0-10.8,5-17.25,4.51-5.84,10.93-5.83t10.93,5.83q5,6.44,5,17.55t-5,17.52q-4.51,5.82-10.9,5.83t-11-5.83Q814.61,564.42,814.61,553.05Zm6.71,0a26.78,26.78,0,0,0,2.61,12.51c1.74,3.26,4,4.9,6.65,4.9s4.89-1.64,6.65-4.9a29.93,29.93,0,0,0,0-24.58q-2.64-4.86-6.65-4.86T824,541A25,25,0,0,0,821.32,553.08Z"/><path d="M864.53,585.26h-5.79V560.65h5.79v1.82a6.13,6.13,0,0,1,5.06-2.33,8,8,0,0,1,3.28.68,8.42,8.42,0,0,1,2.64,1.88,8.62,8.62,0,0,1,1.74,2.78,9.28,9.28,0,0,1,.63,3.42,9.06,9.06,0,0,1-.63,3.4,8.78,8.78,0,0,1-1.73,2.75,7.77,7.77,0,0,1-2.6,1.85,8,8,0,0,1-3.27.68,6.84,6.84,0,0,1-5.12-2.12Zm7.3-16.36a3.74,3.74,0,0,0-.28-1.45,3.46,3.46,0,0,0-.78-1.2,4.05,4.05,0,0,0-1.2-.82,3.67,3.67,0,0,0-1.49-.3,3.5,3.5,0,0,0-1.44.29,3.75,3.75,0,0,0-1.17.8,4.2,4.2,0,0,0-.8,1.2,3.59,3.59,0,0,0-.3,1.45,3.67,3.67,0,0,0,.29,1.44,3.53,3.53,0,0,0,.8,1.17,4,4,0,0,0,1.2.8,3.75,3.75,0,0,0,2.89,0,3.69,3.69,0,0,0,1.17-.8,4.08,4.08,0,0,0,.8-1.19A3.26,3.26,0,0,0,871.83,568.9Z"/><path d="M887.63,565.48v11.58h-5.79V565.48h-1.92v-4.83h1.92v-4.93h5.79v4.93h3.3v4.83Z"/><path d="M808.55,708.12H794.61l-2.23,7.5,1-.09.84,0A14.23,14.23,0,0,1,805,720a17,17,0,0,1-.56,23.12,16.75,16.75,0,0,1-12.1,4.63q-9,0-14.18-8.44l5.16-4.37a15.82,15.82,0,0,0,4.31,5.13,9.91,9.91,0,0,0,12.18-1.41,10.06,10.06,0,0,0,2.79-7.17,9.58,9.58,0,0,0-2.76-7.09,9.17,9.17,0,0,0-6.88-2.85,10,10,0,0,0-7.94,4h-2.26l7.12-23.79h18.69Z"/><path d="M816.58,724.05q0-10.8,5-17.25,4.51-5.84,10.93-5.83c4.27,0,7.92,1.94,10.92,5.83q5,6.44,5,17.55t-5,17.52c-3,3.88-6.64,5.83-10.89,5.83s-7.91-2-11-5.83Q816.58,735.42,816.58,724.05Zm6.71,0a26.78,26.78,0,0,0,2.61,12.51c1.73,3.26,4,4.9,6.65,4.9s4.89-1.64,6.65-4.9,2.63-7.33,2.63-12.27A25.73,25.73,0,0,0,839.2,712q-2.64-4.86-6.65-4.86T825.93,712A25,25,0,0,0,823.29,724.08Z"/><path d="M864.53,756.26h-5.79V731.65h5.79v1.82a6.13,6.13,0,0,1,5.06-2.33,8,8,0,0,1,3.28.68,8.42,8.42,0,0,1,2.64,1.88,8.62,8.62,0,0,1,1.74,2.78,9.28,9.28,0,0,1,.63,3.42,9.06,9.06,0,0,1-.63,3.4,8.78,8.78,0,0,1-1.73,2.75,7.77,7.77,0,0,1-2.6,1.85,8,8,0,0,1-3.27.68,6.84,6.84,0,0,1-5.12-2.12Zm7.3-16.36a3.74,3.74,0,0,0-.28-1.45,3.46,3.46,0,0,0-.78-1.2,4.05,4.05,0,0,0-1.2-.82,3.67,3.67,0,0,0-1.49-.3,3.5,3.5,0,0,0-1.44.29,3.75,3.75,0,0,0-1.17.8,4.2,4.2,0,0,0-.8,1.2,3.59,3.59,0,0,0-.3,1.45,3.67,3.67,0,0,0,.29,1.44,3.53,3.53,0,0,0,.8,1.17,4,4,0,0,0,1.2.8,3.75,3.75,0,0,0,2.89,0,3.69,3.69,0,0,0,1.17-.8,4.08,4.08,0,0,0,.8-1.19A3.26,3.26,0,0,0,871.83,739.9Z"/><path d="M887.63,736.48v11.58h-5.79V736.48h-1.92v-4.83h1.92v-4.93h5.79v4.93h3.3v4.83Z"/></g></g></svg>