<svg xmlns="http://www.w3.org/2000/svg" viewBox="0 0 1059 1294"><defs><style>.cls-1,.cls-4,.cls-5{fill:#fff;}.cls-11,.cls-2{fill:none;}.cls-2{stroke:#ffcb64;stroke-width:13.56px;}.cls-2,.cls-4,.cls-5,.cls-6{stroke-miterlimit:10;}.cls-3,.cls-6{fill:#ffcb64;}.cls-4{stroke:#cecece;}.cls-4,.cls-5{stroke-width:9.72px;}.cls-5{stroke:#84642c;}.cls-6{stroke:#fff59c;stroke-width:9.6px;}.cls-7{fill:#6c63ff;}.cls-8{opacity:0.2;isolation:isolate;}.cls-9{fill:#2f2e41;}.cls-10{fill:#d0cde1;}</style></defs><title>アセット 35</title><g id="レイヤー_2" data-name="レイヤー 2"><g id="レイヤー_1-2" data-name="レイヤー 1"><rect class="cls-1" width="1059" height="1294" rx="55.87"/><rect class="cls-2" x="123.54" y="220.3" width="804.13" height="168.2" rx="26.37"/><path class="cls-3" d="M248.82,92.52q-5.38,16.16-12.63,25.26-6.62,8.49-18.84,16.15a29.67,29.67,0,0,0-5-6q12.42-7.86,18-15.32,6.21-7.86,10.76-22.56Z"/><path class="cls-3" d="M278.64,92.52v26.09h-7.25V92.52ZM300.17,90v14.9q0,16.57-5,22.15-4.56,5-16.36,8.29a35.94,35.94,0,0,0-3.52-6.84q9.94-2.05,13.87-6,3.74-3.72,3.73-16.77V90Z"/><path class="cls-3" d="M354.82,92.52q-5.38,16.16-12.63,25.26-6.62,8.49-18.84,16.15a29.67,29.67,0,0,0-5-6q12.42-7.86,18-15.32,6.21-7.86,10.76-22.56Z"/><path class="cls-3" d="M384.64,92.52v26.09h-7.25V92.52ZM406.17,90v14.9q0,16.57-5,22.15-4.56,5-16.36,8.29a35.94,35.94,0,0,0-3.52-6.84q9.94-2.05,13.87-6,3.74-3.72,3.73-16.77V90Z"/><path d="M465.38,98.32q-5,14.28-12.22,22.56-6.42,7.26-21.53,13.25a18.52,18.52,0,0,0-3.31-7q11.6-3.72,18-9.73,5.6-5.16,10.56-16.77H426.25V93.76h33.54l.62-.41Z"/><path d="M515.69,105.77a101,101,0,0,1-13.87,12.63l-1.45-2.48q-.63,9.51-5,14.28-2.91,3.31-9.94,5.8a23.48,23.48,0,0,0-2.9-6.21c3.45-1.25,5.93-2.62,7.45-4.14q3.74-3.74,3.73-15.53h6.63v1.45a57.15,57.15,0,0,0,5.17-5H481.73v-5.8h29.19l.63-.21Z"/><path d="M549.43,100.39l-5,6A82.71,82.71,0,0,0,532,96.66l4.35-5.59A83.52,83.52,0,0,1,549.43,100.39Zm25.26,4.76q-14.28,19.26-38.92,29.19l-3.52-7.25q12.63-4.75,20.29-10.35,7.46-5.58,17.18-17A31.38,31.38,0,0,0,574.69,105.15Z"/><path d="M625,106.6q-5,11.81-11.39,18.22-7.46,7.45-22.36,11a20.66,20.66,0,0,0-3.31-7q13.88-2.69,20.5-9.32a37.92,37.92,0,0,0,6.83-9.93H584.21v-6.21h35.61l.83-.42Zm-6.83-15.32v6.21H589.6V91.28Z"/><path d="M655.43,100.39l-5,6A82.71,82.71,0,0,0,638,96.66l4.35-5.59A83.52,83.52,0,0,1,655.43,100.39Zm25.26,4.76q-14.28,19.26-38.92,29.19l-3.52-7.25q12.63-4.75,20.29-10.35,7.46-5.58,17.18-17A31.38,31.38,0,0,0,680.69,105.15Z"/><path d="M731.21,110.33,732,117l-17.8,1.66,1.86,16.14-7.45.63L707,119.23l-18.42,1.65-.62-6.62,18.22-1.66-.83-7.24-13.67,1.24L691,100l13.46-1.24-1.24-8.9,7.45-.62,1,8.9,13.66-1.24.62,6.62-13.46,1.25.83,7.24Z"/><path d="M761.43,100.39l-5,6A82.71,82.71,0,0,0,744,96.66l4.35-5.59A83.52,83.52,0,0,1,761.43,100.39Zm25.26,4.76q-14.28,19.26-38.92,29.19l-3.52-7.25q12.63-4.75,20.29-10.35,7.46-5.58,17.18-17A31.38,31.38,0,0,0,786.69,105.15Z"/><path d="M828.72,97.49l.83-.41,4.14,4.34q-6.63,16.77-13.46,23-6.84,6.42-19.88,10.56a30.89,30.89,0,0,0-4.34-6.42q12.82-3.51,18.84-8.69T825,103.7H812a60.1,60.1,0,0,1-13.46,14.91,13.53,13.53,0,0,0-5.38-5,52.56,52.56,0,0,0,10.14-10.56,59.36,59.36,0,0,0,7-13.25L818,92.11l-2.69,5.38Zm8.28-1-2.9,2.9-6.21-5.59,2.9-2.9Q833.69,93.35,837,96.45Zm4.55-4.76L838.45,95l-3.94-3.93a22,22,0,0,0-2.07-1.65l2.9-3.11Q837.41,88,841.55,91.69Z"/><rect class="cls-4" x="123.54" y="447.33" width="804.13" height="125.77" rx="22.81"/><rect class="cls-5" x="123.54" y="616.33" width="804.13" height="125.77" rx="22.81"/><path d="M415.45,488.27l.5,8.25q-7.5.25-14.75.75A31.86,31.86,0,0,0,390,508a14.4,14.4,0,0,0-2.25,9.25q.75,12,19.5,13-.26,4.5-.25,8.75a36.89,36.89,0,0,1-15.75-3.75q-10.5-5-11.75-16.75-.75-10,9-20.25-13.26,1.26-26.5,3.5a71.14,71.14,0,0,1-.5-8.5Q388.45,491.28,415.45,488.27Z"/><path d="M446.2,485q4.24,2,8.25,3.75-6.26,11.76-12,23.75,4.5-3.75,8.5-3.75,7,0,7,7.5v7.5a18.24,18.24,0,0,0,.5,5.5,2.91,2.91,0,0,0,3,2,6.43,6.43,0,0,0,5-2.75q4.74-6,6-18.5a24.5,24.5,0,0,0,8.25,2.5q-1.76,12.26-6.5,18.75-5.25,7-13.5,7c-3.34,0-5.92-.91-7.75-2.75q-2.25-2.25-2.25-8.25V520q0-5.74-5.75-2.5a19.58,19.58,0,0,0-8,8.75,90.57,90.57,0,0,0-6,13q-4-2.25-7.75-4.25Q436,510,446.2,485Z"/><path d="M543.45,488.27l.5,8.25q-7.5.25-14.75.75A31.86,31.86,0,0,0,518,508a14.4,14.4,0,0,0-2.25,9.25q.75,12,19.5,13-.26,4.5-.25,8.75a36.89,36.89,0,0,1-15.75-3.75q-10.5-5-11.75-16.75-.75-10,9-20.25-13.26,1.26-26.5,3.5a71.14,71.14,0,0,1-.5-8.5Q516.45,491.28,543.45,488.27Z"/><path d="M574.2,485q4.24,2,8.25,3.75-6.26,11.76-12,23.75,4.5-3.75,8.5-3.75,7,0,7,7.5v7.5a18.24,18.24,0,0,0,.5,5.5,2.91,2.91,0,0,0,3,2,6.43,6.43,0,0,0,5-2.75q4.74-6,6-18.5a24.5,24.5,0,0,0,8.25,2.5q-1.76,12.26-6.5,18.75-5.25,7-13.5,7c-3.34,0-5.92-.91-7.75-2.75q-2.25-2.25-2.25-8.25V520q0-5.74-5.75-2.5a19.58,19.58,0,0,0-8,8.75,90.57,90.57,0,0,0-6,13q-4-2.25-7.75-4.25Q564,510,574.2,485Z"/><path d="M769.55,503.57H755.61l-2.23,7.5,1-.08.84,0A14.23,14.23,0,0,1,766,515.41a17,17,0,0,1-.56,23.12,16.74,16.74,0,0,1-12.1,4.62q-9,0-14.18-8.43l5.16-4.37a15.93,15.93,0,0,0,4.31,5.13,9.95,9.95,0,0,0,12.18-1.41,10.07,10.07,0,0,0,2.79-7.18,9.59,9.59,0,0,0-2.76-7.09,9.19,9.19,0,0,0-6.88-2.84,10,10,0,0,0-7.94,4h-2.26l7.12-23.79h18.69Z"/><path d="M790.06,536h16.85v6.41H776.53l15.7-19c1.54-1.9,2.84-3.54,3.88-4.92A37.21,37.21,0,0,0,798.5,515a9.85,9.85,0,0,0,1.67-4.95,7,7,0,0,0-2.23-5.3,7.62,7.62,0,0,0-5.51-2.14q-6.85,0-7.85,8.11h-6.79q1.63-14.3,14.44-14.29a14.57,14.57,0,0,1,10.37,3.92,12.77,12.77,0,0,1,4.22,9.73,14.83,14.83,0,0,1-2,7.23,36.26,36.26,0,0,1-2.92,4.38q-1.92,2.53-4.85,6Z"/><path d="M814.61,519.51q0-10.82,5-17.25,4.51-5.83,10.93-5.83t10.93,5.83q5,6.44,5,17.54t-5,17.52q-4.51,5.83-10.9,5.83t-11-5.83Q814.61,530.89,814.61,519.51Zm6.71,0a26.78,26.78,0,0,0,2.61,12.51c1.74,3.26,4,4.89,6.65,4.89s4.89-1.63,6.65-4.89a29.93,29.93,0,0,0,0-24.58q-2.64-4.86-6.65-4.86T824,507.47A25,25,0,0,0,821.32,519.54Z"/><path d="M769.55,664.57H755.61l-2.23,7.5,1-.08.84,0A14.23,14.23,0,0,1,766,676.41a17,17,0,0,1-.56,23.12,16.74,16.74,0,0,1-12.1,4.62q-9,0-14.18-8.43l5.16-4.37a15.93,15.93,0,0,0,4.31,5.13,9.95,9.95,0,0,0,12.18-1.41,10.07,10.07,0,0,0,2.79-7.18,9.59,9.59,0,0,0-2.76-7.09,9.19,9.19,0,0,0-6.88-2.84,10,10,0,0,0-7.94,4h-2.26l7.12-23.79h18.69Z"/><path d="M777.58,680.51q0-10.82,5-17.25,4.51-5.84,10.93-5.83c4.27,0,7.92,1.94,10.92,5.83q5,6.43,5,17.54t-5,17.52c-3,3.89-6.64,5.83-10.89,5.83s-7.91-1.94-11-5.83Q777.58,691.89,777.58,680.51Zm6.71,0a26.78,26.78,0,0,0,2.61,12.51q2.6,4.89,6.65,4.89t6.65-4.89q2.64-4.86,2.63-12.27t-2.63-12.31q-2.64-4.86-6.65-4.86t-6.62,4.86A25,25,0,0,0,784.29,680.54Z"/><path d="M814.61,680.51q0-10.82,5-17.25,4.51-5.84,10.93-5.83t10.93,5.83q5,6.43,5,17.54t-5,17.52q-4.51,5.83-10.9,5.83t-11-5.83Q814.61,691.89,814.61,680.51Zm6.71,0a26.78,26.78,0,0,0,2.61,12.51c1.74,3.26,4,4.89,6.65,4.89s4.89-1.63,6.65-4.89a29.93,29.93,0,0,0,0-24.58q-2.64-4.86-6.65-4.86T824,668.47A25,25,0,0,0,821.32,680.54Z"/><path d="M860.53,552.71h-5.79v-24.6h5.79v1.82a6.11,6.11,0,0,1,5.06-2.34,7.87,7.87,0,0,1,3.28.69,8.56,8.56,0,0,1,2.64,1.87,8.66,8.66,0,0,1,1.74,2.79,9.27,9.27,0,0,1,.62,3.42,9,9,0,0,1-.62,3.39,8.72,8.72,0,0,1-1.73,2.76,7.94,7.94,0,0,1-5.87,2.52,6.83,6.83,0,0,1-5.12-2.11Zm7.3-16.35a3.74,3.74,0,0,0-.28-1.45,3.46,3.46,0,0,0-.78-1.2,3.88,3.88,0,0,0-1.2-.82,3.85,3.85,0,0,0-2.93,0,3.93,3.93,0,0,0-1.17.8,4.49,4.49,0,0,0-.8,1.2,3.71,3.71,0,0,0,0,2.9,3.53,3.53,0,0,0,.8,1.17,4,4,0,0,0,1.2.8,3.6,3.6,0,0,0,1.46.3,3.62,3.62,0,0,0,2.6-1.09,4,4,0,0,0,.8-1.18A3.29,3.29,0,0,0,867.83,536.36Z"/><path d="M883.63,532.94v11.58h-5.79V532.94h-1.92v-4.83h1.92v-4.93h5.79v4.93h3.3v4.83Z"/><path d="M864.53,710.71h-5.79v-24.6h5.79v1.82a6.11,6.11,0,0,1,5.06-2.34,7.87,7.87,0,0,1,3.28.69,8.56,8.56,0,0,1,2.64,1.87,8.66,8.66,0,0,1,1.74,2.79,9.27,9.27,0,0,1,.62,3.42,9,9,0,0,1-.62,3.39,8.72,8.72,0,0,1-1.73,2.76,7.94,7.94,0,0,1-5.87,2.52,6.83,6.83,0,0,1-5.12-2.11Zm7.3-16.35a3.74,3.74,0,0,0-.28-1.45,3.46,3.46,0,0,0-.78-1.2,3.88,3.88,0,0,0-1.2-.82,3.85,3.85,0,0,0-2.93,0,3.93,3.93,0,0,0-1.17.8,4.49,4.49,0,0,0-.8,1.2,3.71,3.71,0,0,0,0,2.9,3.53,3.53,0,0,0,.8,1.17,4,4,0,0,0,1.2.8,3.6,3.6,0,0,0,1.46.3,3.62,3.62,0,0,0,2.6-1.09,4,4,0,0,0,.8-1.18A3.29,3.29,0,0,0,871.83,694.36Z"/><path d="M887.63,690.94v11.58h-5.79V690.94h-1.92v-4.83h1.92v-4.93h5.79v4.93h3.3v4.83Z"/><path d="M753.13,926.5v35.62c0,2.13-.63,3.5-1.88,4.13s-3.56,1.06-7.31,1.31a16.5,16.5,0,0,0-1.87-5.62h4.5a.66.66,0,0,0,.75-.75V948.62H722.57v18.57h-5.82V926.5Zm-30.56,17.25h9.56V932.12h-9.56Zm15,0h9.75V932.12h-9.75Z"/><path d="M770.74,296.27H756.09l-2.33,7.88,1-.09.88,0A14.92,14.92,0,0,1,767,308.7,17.89,17.89,0,0,1,766.4,333a17.58,17.58,0,0,1-12.71,4.86q-9.44,0-14.89-8.86l5.42-4.58a16.73,16.73,0,0,0,4.52,5.38,10.45,10.45,0,0,0,12.8-1.47,10.6,10.6,0,0,0,2.92-7.54,10,10,0,0,0-2.89-7.44,9.66,9.66,0,0,0-7.23-3,10.56,10.56,0,0,0-8.34,4.22h-2.37l7.48-25h19.63Z"/><path d="M787.44,312.36a11.66,11.66,0,0,1-5.23-10.06,13,13,0,0,1,4-9.66,13.72,13.72,0,0,1,9.93-3.87,13.5,13.5,0,0,1,9.85,3.87,13,13,0,0,1,3.94,9.69,12,12,0,0,1-5.2,10,11.09,11.09,0,0,1,4.49,4.49,13.42,13.42,0,0,1,1.66,6.65,13.84,13.84,0,0,1-4.12,10.33,14.46,14.46,0,0,1-10.55,4,15.12,15.12,0,0,1-10.86-4.06A13.44,13.44,0,0,1,781,323.56Q781,315.57,787.44,312.36Zm.61,10.95a7.87,7.87,0,0,0,2.28,5.66,7.89,7.89,0,1,0,5.6-13.47,7.66,7.66,0,0,0-5.57,2.31A7.49,7.49,0,0,0,788.05,323.31Zm.9-21a7.09,7.09,0,1,0,7.1-7,6.84,6.84,0,0,0-5,2.09A6.73,6.73,0,0,0,789,302.27Z"/><path d="M818.05,313q0-11.36,5.29-18.12,4.74-6.12,11.47-6.12t11.48,6.12q5.28,6.76,5.29,18.43t-5.29,18.39q-4.74,6.12-11.45,6.12t-11.5-6.12Q818,324.95,818.05,313Zm7,0q0,7.9,2.74,13.13t7,5.14q4.22,0,7-5.14t2.77-12.89q0-7.77-2.77-12.92t-7-5.1q-4.18,0-6.95,5.1A26.2,26.2,0,0,0,825.09,313Z"/><path d="M384,892.68h-37.8V872.76h74.28l-51.84,90.48H342.73Z"/><path d="M432.37,940.32h20.39L430.69,980H416.76Z"/><path d="M535.21,963.24H462.37L484.8,940q8.88-9.24,13.92-15.66a86.22,86.22,0,0,0,7.5-10.86,29,29,0,0,0,3.07-7.2,23.25,23.25,0,0,0,.59-4.68,12.1,12.1,0,0,0-.66-4,10.23,10.23,0,0,0-2-3.42,10.12,10.12,0,0,0-3.19-2.4,9.93,9.93,0,0,0-4.38-.9,9.41,9.41,0,0,0-7.5,3.12,11.49,11.49,0,0,0-2.69,7.8,29.06,29.06,0,0,0,.35,3.84H464.16a38.42,38.42,0,0,1,2.59-14.4A32.49,32.49,0,0,1,474,880.08a32.06,32.06,0,0,1,11.1-7.2,38.28,38.28,0,0,1,14.11-2.52,39.56,39.56,0,0,1,14,2.4,33.55,33.55,0,0,1,11.11,6.72,30.83,30.83,0,0,1,7.31,10.26,31.41,31.41,0,0,1,2.65,12.9,30.06,30.06,0,0,1-3.19,13.74,48.37,48.37,0,0,1-10.14,12.9l-15,14h29.29Z"/><path d="M564.72,915.48q-14.16-5.88-14.16-19.92a23.14,23.14,0,0,1,2.28-10.38,24.35,24.35,0,0,1,6.3-8,28.2,28.2,0,0,1,9.72-5.16,44.58,44.58,0,0,1,25.08,0,28.2,28.2,0,0,1,9.72,5.16,24.35,24.35,0,0,1,6.3,8,23.14,23.14,0,0,1,2.28,10.38,26,26,0,0,1-.72,6.42,14.63,14.63,0,0,1-2.46,5.16,20.8,20.8,0,0,1-4.56,4.38,41.4,41.4,0,0,1-7,4Q616,922.68,616,938.76a22.65,22.65,0,0,1-2.58,10.68,26.11,26.11,0,0,1-7.2,8.52,35.25,35.25,0,0,1-10.92,5.64,48,48,0,0,1-27.48.06,35.07,35.07,0,0,1-11-5.58,26.5,26.5,0,0,1-7.32-8.52,22.48,22.48,0,0,1-2.64-10.8Q546.84,922.32,564.72,915.48Zm5.88,20.4a11.4,11.4,0,0,0,3.12,7.86,11,11,0,0,0,3.42,2.4,10.17,10.17,0,0,0,4.26.9,9.89,9.89,0,0,0,4.14-.9,11.75,11.75,0,0,0,3.48-2.4A10.81,10.81,0,0,0,592.2,936a10.53,10.53,0,0,0-3.18-7.74,10.77,10.77,0,0,0-18.42,7.62Zm.84-40.08a9.82,9.82,0,0,0,2.88,7.14,9.52,9.52,0,0,0,7.08,2.94,9.25,9.25,0,0,0,4-.84,10.3,10.3,0,0,0,3.12-2.22,10.73,10.73,0,0,0,2.1-3.18,9.26,9.26,0,0,0,.78-3.72,9.68,9.68,0,0,0-2.88-7A9.52,9.52,0,0,0,581.4,886a9.62,9.62,0,0,0-7.08,2.88A9.48,9.48,0,0,0,571.44,895.8Z"/><path d="M624.6,917.88a64.21,64.21,0,0,1,2.82-19.62,45.32,45.32,0,0,1,7.92-15.06,35.73,35.73,0,0,1,12.12-9.66,35.46,35.46,0,0,1,43.14,9.66,46,46,0,0,1,7.86,15.06,69.66,69.66,0,0,1,0,39.24,46.69,46.69,0,0,1-7.86,15.12,34.7,34.7,0,0,1-12.12,9.72,35.34,35.34,0,0,1-43.14-9.72,46,46,0,0,1-7.92-15.12A64.21,64.21,0,0,1,624.6,917.88Zm23.28,0A51,51,0,0,0,649,928.8a31.76,31.76,0,0,0,3.06,8.52,16.48,16.48,0,0,0,4.74,5.58,10.73,10.73,0,0,0,12.42,0,15.64,15.64,0,0,0,4.74-5.58,33.21,33.21,0,0,0,3-8.52,55.44,55.44,0,0,0,0-21.78,32.15,32.15,0,0,0-3-8.52,15.77,15.77,0,0,0-4.74-5.52,10.73,10.73,0,0,0-12.42,0A16.63,16.63,0,0,0,652,898.5,30.79,30.79,0,0,0,649,907,51.25,51.25,0,0,0,647.88,917.88Z"/><path d="M864.53,343.71h-5.79v-24.6h5.79v1.82a6.11,6.11,0,0,1,5.06-2.34,7.87,7.87,0,0,1,3.28.69,8.56,8.56,0,0,1,2.64,1.87,8.66,8.66,0,0,1,1.74,2.79,9.27,9.27,0,0,1,.62,3.42,9,9,0,0,1-.62,3.39,8.72,8.72,0,0,1-1.73,2.76,7.94,7.94,0,0,1-5.87,2.52,6.83,6.83,0,0,1-5.12-2.11Zm7.3-16.35a3.74,3.74,0,0,0-.28-1.45,3.46,3.46,0,0,0-.78-1.2,3.88,3.88,0,0,0-1.2-.82,3.85,3.85,0,0,0-2.93,0,3.93,3.93,0,0,0-1.17.8,4.49,4.49,0,0,0-.8,1.2,3.71,3.71,0,0,0,0,2.9,3.53,3.53,0,0,0,.8,1.17,4,4,0,0,0,1.2.8,3.6,3.6,0,0,0,1.46.3,3.62,3.62,0,0,0,2.6-1.09,4,4,0,0,0,.8-1.18A3.29,3.29,0,0,0,871.83,327.36Z"/><path d="M887.63,323.94v11.58h-5.79V323.94h-1.92v-4.83h1.92v-4.93h5.79v4.93h3.3v4.83Z"/><path d="M357.2,267.9q5.31,1.56,10.94,3.12l-3.44,10.63q12.81-1.56,16.25,10,1.56,5.94-.31,15.31a71.88,71.88,0,0,1-4.06,15.31Q371.89,334.78,365,336q-7.81.94-13.75-9.37a31.06,31.06,0,0,0,5.93-7.19q4.69,8.13,7.19,4.69a31.78,31.78,0,0,0,4.06-9.06Q374.08,296.66,370,292q-3.13-2.81-8.44-.94a384.17,384.17,0,0,1-19.69,44.07q-5-2.5-9.69-5.32A199.39,199.39,0,0,0,350,292.9a108.05,108.05,0,0,0-11.25,2.5q-.94-5.31-1.57-10.63,7.82-.61,15.94-1.87A132.47,132.47,0,0,0,357.2,267.9Zm31.25,10.62Q404.4,292.59,405.64,307a15,15,0,0,1-.94,6.88q-2.19,5.94-14.68,4.06a26.66,26.66,0,0,0-1.25-9.69,11.11,11.11,0,0,0,5.31,0c1.25-.41,1.45-2,.62-4.69q-2.81-10-13.12-19.68A59.53,59.53,0,0,1,388.45,278.52Z"/><path d="M462.52,278.52q13.74,1.88,17.5,14.38a27.24,27.24,0,0,1-.94,19.37,26.42,26.42,0,0,1-11.88,12.5A62.09,62.09,0,0,1,449.08,331a104,104,0,0,1-16.88,1.57A26.86,26.86,0,0,0,429.39,322q21.25.94,33.75-6.87a16,16,0,0,0,6.88-9.38,17.86,17.86,0,0,0-.94-11.87q-3.13-7.18-14.38-5.94a197.59,197.59,0,0,0-37.81,6.87q-1.25-5.31-2.19-10.93l15.94-2.5q8.13-1.56,15.94-2.5Q456.89,277.6,462.52,278.52Z"/><path d="M535,313.84A84.37,84.37,0,0,1,560.64,326q-3.43,4.38-6.56,8.75A63.19,63.19,0,0,0,535,323.52c0,4.8-.84,8-2.5,9.69Q529.7,336,523.77,337a32.74,32.74,0,0,1-11.88-.31,15.13,15.13,0,0,1-8.12-4.06,11.67,11.67,0,0,1-3.75-8.44q0-4.06,3.75-7.81,4.68-4.69,15.62-4.69A53.11,53.11,0,0,1,525,312q-.32-3.43-.32-7.5h-5.93q-10,0-13.44-3.44-2.82-2.81-3.44-8.75l9.69-.62q0,3.44,1.56,3.75a32.85,32.85,0,0,0,11.25.62v-7.81A126.11,126.11,0,0,1,498.14,286l1.88-9.37a108.56,108.56,0,0,0,24.68,2.19V267.59q5.63,0,11.25.31a101.22,101.22,0,0,0-.93,10.31,130.65,130.65,0,0,0,21.87-3.12q.32,5.31.31,10a207.24,207.24,0,0,1-22.5,2.5v8.12a187,187,0,0,0,18.75-2.19l.63,9.38q-9.69.93-19.38,1.56C534.7,307.59,534.81,310.71,535,313.84Zm-22.82,7.5c-1.87.83-2.81,1.87-2.81,3.12a3.63,3.63,0,0,0,2.19,3.13,13.56,13.56,0,0,0,6.56,1.25c2.71,0,4.58-.52,5.63-1.57s1.45-3.22,1.25-6.56Q516.26,319.47,512.2,321.34Z"/><path d="M596.27,267.59q5,1.25,10,2.81c-.84,3.12-1.78,6.36-2.82,9.69q7.81-1.56,15.32-3.44l.62,9.69a190.85,190.85,0,0,1-19.06,3.43,397.29,397.29,0,0,1-18.44,46.88q-4.68-2.5-9.37-4.69A351.5,351.5,0,0,0,590,290.71H578.14V281a113.54,113.54,0,0,0,14.69.32Q594.71,274.47,596.27,267.59Zm2.81,46.87,9.37.63q-1.25,7.5,5,9.06,12.49,2.81,28.44.31c.21,3.55.31,7.08.31,10.63q-25.94,1.88-34.37-2.5-5.33-2.82-7.19-7.19Q599.08,322.28,599.08,314.46Zm40-23.75q-.32,4.69-.31,9.69a130.09,130.09,0,0,0-31.25,1.25,61.26,61.26,0,0,1-1.25-8.75A115.82,115.82,0,0,1,639.08,290.71Z"/><path d="M655.11,319.74c.17-1.33.29-2.71.38-4.13a40.26,40.26,0,0,0,9.5.13q-1-2.37-1.88-5l4.25-.75q.87,2.63,1.88,5a69.39,69.39,0,0,0,7.62-2.25c.33,1.42.71,2.79,1.13,4.12q-3.51,1-7,1.88a23.76,23.76,0,0,0,3.62,4.75,26.67,26.67,0,0,0,2.38,2.12c-.75,1.17-1.5,2.3-2.25,3.38a17.62,17.62,0,0,0-7.13-1.75q-6.63-.25-7.5,2a2.33,2.33,0,0,0,1,2.87,7.85,7.85,0,0,0,4,1.13,40.79,40.79,0,0,0,10.63-.38L676,337a42.39,42.39,0,0,1-8.63.5q-7-.25-9.87-3.13a5.87,5.87,0,0,1,.25-8.37,8.26,8.26,0,0,1,5.12-2.13,24.86,24.86,0,0,1,7.38.38,55.64,55.64,0,0,1-3.38-4.75A46.24,46.24,0,0,1,655.11,319.74Z"/><path d="M695.86,310.24c1.42.67,2.79,1.29,4.13,1.87Q696.86,318,694,324a6.81,6.81,0,0,1,4.25-1.88q3.5,0,3.5,3.75v3.75a9.1,9.1,0,0,0,.25,2.75,1.45,1.45,0,0,0,1.5,1A3.21,3.21,0,0,0,706,332q2.37-3,3-9.25a12.34,12.34,0,0,0,4.12,1.25q-.87,6.12-3.25,9.37a8.07,8.07,0,0,1-6.75,3.5,5.2,5.2,0,0,1-3.87-1.37c-.75-.75-1.13-2.13-1.13-4.13v-3.62c0-1.92-1-2.33-2.87-1.25a9.77,9.77,0,0,0-4,4.37,45.53,45.53,0,0,0-3,6.5c-1.34-.75-2.63-1.45-3.88-2.12Q690.74,322.75,695.86,310.24Z"/><path d="M621.11,522.74c.17-1.33.29-2.71.38-4.13a40.26,40.26,0,0,0,9.5.13q-1-2.37-1.88-5l4.25-.75q.87,2.63,1.88,5a69.39,69.39,0,0,0,7.62-2.25c.33,1.42.71,2.79,1.13,4.12q-3.51,1-7,1.88a23.76,23.76,0,0,0,3.62,4.75,26.67,26.67,0,0,0,2.38,2.12c-.75,1.17-1.5,2.3-2.25,3.38a17.62,17.62,0,0,0-7.13-1.75q-6.63-.25-7.5,2a2.33,2.33,0,0,0,1,2.87,7.85,7.85,0,0,0,4,1.13,40.79,40.79,0,0,0,10.63-.38L642,540a42.39,42.39,0,0,1-8.63.5q-7-.25-9.87-3.13a5.87,5.87,0,0,1,.25-8.37,8.26,8.26,0,0,1,5.12-2.13,24.86,24.86,0,0,1,7.38.38,55.64,55.64,0,0,1-3.38-4.75A46.24,46.24,0,0,1,621.11,522.74Z"/><path d="M661.86,513.24c1.42.67,2.79,1.29,4.13,1.87Q662.86,521,660,527a6.81,6.81,0,0,1,4.25-1.88q3.5,0,3.5,3.75v3.75a9.1,9.1,0,0,0,.25,2.75,1.45,1.45,0,0,0,1.5,1A3.21,3.21,0,0,0,672,535q2.37-3,3-9.25a12.34,12.34,0,0,0,4.12,1.25q-.87,6.12-3.25,9.37a8.07,8.07,0,0,1-6.75,3.5,5.2,5.2,0,0,1-3.87-1.37c-.75-.75-1.13-2.13-1.13-4.13v-3.62c0-1.92-1-2.33-2.87-1.25a9.77,9.77,0,0,0-4,4.37,45.53,45.53,0,0,0-3,6.5c-1.34-.75-2.63-1.45-3.88-2.12Q656.74,525.74,661.86,513.24Z"/><path d="M409,690.77a223,223,0,0,1,21.5,6.5l-2.75,8.25a150.11,150.11,0,0,0-19.5-6.5,184,184,0,0,0-21.25-3.5l1.5-7.75A109.91,109.91,0,0,1,409,690.77ZM394,669a224.89,224.89,0,0,1,30.25,8L422,684.77q-18.26-6.49-29.75-8.25Zm33.5-8.5-2.25,8q-19.26-6.75-32.25-9.25l1.75-7.75A201.8,201.8,0,0,1,427.45,660.52Z"/><path d="M456.24,681.52l-6.75,3.5q-2-3.75-3.25-6.25a50.26,50.26,0,0,0-3.5-5.75l6.75-3.75Q453.24,675.53,456.24,681.52Zm30.75-11q-5.25,18.75-12.5,26.25-7,7.5-21,12a23.16,23.16,0,0,0-4-7.75q15.24-4.24,20.75-12,5-7.24,8.25-21ZM469,678l-7,3.5q-2.5-6-5.75-12.25l6.5-3.25A65.51,65.51,0,0,1,469,678Z"/><path d="M503.15,668.52a98.15,98.15,0,0,1,13.5,6l-4,7q-6.75-3.49-13-6ZM552.9,673a149.7,149.7,0,0,1-17.25,17q-10.5,8.51-28.75,16l-4-8.75a78.79,78.79,0,0,0,25.5-12.5q9-6.75,19-18.75Q550.15,671,552.9,673Zm-28.5-13.75L519.9,666a117.65,117.65,0,0,0-13.25-7.25L510.4,652Q517.39,655.28,524.4,659.27Z"/><path d="M613.9,674v8H563.4v-8Z"/><path d="M621.11,684.74c.17-1.33.29-2.71.38-4.13a40.26,40.26,0,0,0,9.5.13q-1-2.37-1.88-5l4.25-.75q.87,2.63,1.88,5a69.39,69.39,0,0,0,7.62-2.25c.33,1.42.71,2.79,1.13,4.12q-3.51,1-7,1.88a23.76,23.76,0,0,0,3.62,4.75,26.67,26.67,0,0,0,2.38,2.12c-.75,1.17-1.5,2.3-2.25,3.38a17.62,17.62,0,0,0-7.13-1.75q-6.63-.25-7.5,2a2.33,2.33,0,0,0,1,2.87,7.85,7.85,0,0,0,4,1.13,40.79,40.79,0,0,0,10.63-.38L642,702a42.39,42.39,0,0,1-8.63.5q-7-.25-9.87-3.13a5.87,5.87,0,0,1,.25-8.37,8.26,8.26,0,0,1,5.12-2.13,24.86,24.86,0,0,1,7.38.38,55.64,55.64,0,0,1-3.38-4.75A46.24,46.24,0,0,1,621.11,684.74Z"/><path d="M661.86,675.24c1.42.67,2.79,1.29,4.13,1.87Q662.86,683,660,689a6.81,6.81,0,0,1,4.25-1.88q3.5,0,3.5,3.75v3.75a9.1,9.1,0,0,0,.25,2.75,1.45,1.45,0,0,0,1.5,1A3.21,3.21,0,0,0,672,697q2.37-3,3-9.25a12.34,12.34,0,0,0,4.12,1.25q-.87,6.12-3.25,9.37a8.07,8.07,0,0,1-6.75,3.5,5.2,5.2,0,0,1-3.87-1.37c-.75-.75-1.13-2.13-1.13-4.13v-3.62c0-1.92-1-2.33-2.87-1.25a9.77,9.77,0,0,0-4,4.37,45.53,45.53,0,0,0-3,6.5c-1.34-.75-2.63-1.45-3.88-2.12Q656.74,687.74,661.86,675.24Z"/><path d="M719.52,800.92a55.93,55.93,0,0,1,5.75,1.8q-.9,2.52-1.8,5.39a19.36,19.36,0,0,0,5.39-1.26q.18,2.7.18,5.4c-2.4.48-4.85.89-7.36,1.25a169.47,169.47,0,0,1-10.43,23.72l-5-3.23a103.17,103.17,0,0,0,9.35-20h-6.29c0-1.79.06-3.65.18-5.57a33.33,33.33,0,0,0,7.9.18Q718.44,804.89,719.52,800.92ZM732.46,816l6.11.36a63,63,0,0,0-.18,12.58,44.55,44.55,0,0,1,9.7,4.67q-1.62,2.68-3.24,5.57a49.36,49.36,0,0,0-6.46-4.31q-.72,5.21-6.83,6.11a14.18,14.18,0,0,1-6.83-.54,8.49,8.49,0,0,1-4.67-3.42,5.44,5.44,0,0,1-.54-4.85,6.44,6.44,0,0,1,3.77-4,15.53,15.53,0,0,1,9.35-.72A73.61,73.61,0,0,1,732.46,816Zm-5.93,15.81a3.42,3.42,0,0,0-2,1.62,1.72,1.72,0,0,0,.36,1.8c1.32,1.31,3.23,1.67,5.75,1.07a3,3,0,0,0,2.16-4A10.79,10.79,0,0,0,726.53,831.83Zm5.93-24.26a71.38,71.38,0,0,1,15.09,4.32l-2.16,5.39A66.92,66.92,0,0,0,731,812.6Z"/><path d="M773.07,801.46a71.7,71.7,0,0,0,.18,15.28,146.37,146.37,0,0,1,14.19-4l1.8,5.75q-12,2.16-18.33,4.86-8.45,3.58-8.09,7.54.54,4.32,9.89,4.32a97.94,97.94,0,0,0,16.71-.9l.36,6.11Q782,841,777.2,841q-15.63,0-19.05-5.58-2.7-4.49.36-9.34a13.37,13.37,0,0,1,3.77-4,63.25,63.25,0,0,1,5.93-3.42q-1.61-5.93-1.25-17.25Zm10.42,1.26a30.18,30.18,0,0,1,5.21,5l-2.7,2.34a40.16,40.16,0,0,0-5-5.21Zm4.49-3.59a47.19,47.19,0,0,1,5.21,4.85l-2.87,2.52q-2.52-2.7-5-5A30.85,30.85,0,0,1,788,799.13Z"/><path d="M812.78,801.46q3,.9,6.29,1.8l-2,6.11q7.36-.9,9.34,5.75a20,20,0,0,1-.18,8.8,41.15,41.15,0,0,1-2.33,8.81q-2.7,7.18-6.65,7.91-4.5.54-7.91-5.39a17.91,17.91,0,0,0,3.42-4.14q2.69,4.68,4.13,2.7a18.46,18.46,0,0,0,2.34-5.21q3.22-10.61.89-13.3-1.78-1.62-4.85-.54A219.22,219.22,0,0,1,804,840.1c-1.92-1-3.77-2-5.57-3.06a113.93,113.93,0,0,0,10.24-21.2,62.38,62.38,0,0,0-6.46,1.44c-.36-2-.66-4.07-.9-6.11q4.49-.36,9.16-1.08A76.76,76.76,0,0,0,812.78,801.46Zm18,6.11q9.15,8.08,9.88,16.35a8.6,8.6,0,0,1-.54,4q-1.26,3.42-8.45,2.33a15.39,15.39,0,0,0-.71-5.57,6.42,6.42,0,0,0,3.05,0c.72-.23.84-1.13.36-2.69q-1.62-5.75-7.55-11.32A34.57,34.57,0,0,1,830.75,807.57Z"/><path d="M853.57,809.73q3,.9,6.11,1.62a50.34,50.34,0,0,0-2.88,11.5,28.94,28.94,0,0,1,8.45-4,18.77,18.77,0,0,1,9.16-.54q5.93,1.44,7.55,6.47a10.14,10.14,0,0,1,0,5.93,12.3,12.3,0,0,1-2.88,4.67q-3.23,3.42-12.4,5.4a52.61,52.61,0,0,1-9.16.71,11.65,11.65,0,0,0-1.62-5.75q11,.38,16.17-2.69a7.29,7.29,0,0,0,3.42-3.77q1.08-2.88-.72-4.68-3.24-3.23-11.14,0a18.46,18.46,0,0,0-8.27,6.83c-1.56-.84-3.05-1.62-4.49-2.33Q851.05,823.2,853.57,809.73Zm4.67-9.88A64.63,64.63,0,0,0,873,804.7l-1.79,5.39a54.62,54.62,0,0,1-15.1-5.39C856.8,803.14,857.52,801.53,858.24,799.85Z"/><path d="M902.8,837.94l-4.49,3.77q-3.24-4.31-7-8.44l4.13-3.6Q899.75,834.17,902.8,837.94Z"/><path d="M390.18,1022.34v8.44H394v5h-3.78v5.39l4-1.43v4.85l-4,1.43v12.58c0,2.16-.48,3.48-1.43,4s-3.18,1-6.65,1.25a14.7,14.7,0,0,0-1.44-5h3.59q.72,0,1.08-1.08v-9.88l-5,1.8-1.08-5,6.11-1.8v-7h-5.57v-5h5.57v-8.44Zm3.78,41.5a14.27,14.27,0,0,0-2.52-5q7.9-1.79,11.86-4.31a22.77,22.77,0,0,1-4.31-7.73h-2.88v-4.67h18.15l.54-.36,3.59,3.42a37.76,37.76,0,0,1-7.18,9.7q3.59,2.52,10.42,4.13a14.61,14.61,0,0,0-2.7,4.67,32,32,0,0,1-11.86-5.57A53.7,53.7,0,0,1,394,1063.84Zm20.3-40.25V1034c0,.6.06.89.18.89a5,5,0,0,0,1.8.18c.36,0,.65-.36.9-1.07s.29-1.38.54-2.34q2.32,1.08,4.67,2-1.26,4.48-2.16,5.21c-.6.6-1.74.9-3.41.9h-3.6a5,5,0,0,1-2.51-.72,2.84,2.84,0,0,1-1.26-2.7v-8.08H403.3a22.85,22.85,0,0,1-2.16,8.26,16.31,16.31,0,0,1-5.39,5.39,9.44,9.44,0,0,0-2.69-4.49,12.77,12.77,0,0,0,4.13-4.31,12.43,12.43,0,0,0,1.26-5.93v-3.6ZM404,1046.77a15.47,15.47,0,0,0,3.23,4.85,19.59,19.59,0,0,0,4.14-4.85Z"/><path d="M430.61,1025.57c2,.6,4,1.2,5.93,1.8a56.07,56.07,0,0,0-1.08,32l-5.75,1.8Q425.77,1046.24,430.61,1025.57Zm21.21-1.62q3-.18,6.11-.18v1.62c.71-.48,1.49-1,2.33-1.62a31,31,0,0,1,4.67,5,22.2,22.2,0,0,1-2.69,2,41.75,41.75,0,0,0-4.31-5c0,2.52.05,5,.17,7.37a32.62,32.62,0,0,0,7.37-1.26l.36,5.57q-4.49.72-7.73,1.08v4.31q0,9.53-3.23,13.84a24.84,24.84,0,0,1-9.7,7.36,18.56,18.56,0,0,0-3.6-5.21q5.58-2,8.09-5.21t2.52-9.7v-4.85l-11.68.36c.11-2,.18-4,.18-5.93a91.73,91.73,0,0,0,11.5,0Zm12.21-3.23c1.8,1.68,3.48,3.35,5,5q-1.44.9-2.88,2a43.81,43.81,0,0,0-4.67-5C462.36,1022,463.2,1021.32,464,1020.72Z"/><path d="M512.73,1050.73c-2,1.79-4.07,3.47-6.11,5,1.08,1.56,2,2.4,2.7,2.51a12,12,0,0,0,.89-3.23,24,24,0,0,0,4.5,2.51q-1.08,4-2.34,5.22a3.81,3.81,0,0,1-2.69,1.25q-2.34,0-5-2.69c-.84-.84-1.61-1.68-2.33-2.52a52.69,52.69,0,0,1-12,5.39c-.6-1.2-1.38-2.57-2.34-4.13l-15.45,3.23-1.08-5.21,7-.89v-11.32H472.3v-4.5h6.11v-2.69h-3.23v-2.34a16.1,16.1,0,0,1-2,2,11.41,11.41,0,0,0-2.7-4.85,40.32,40.32,0,0,0,4.68-5.57,65.37,65.37,0,0,0,3.77-6.29l4.85,2-.54,1.08q4.14,2.88,7,5.21v-.36l6.65-.18v-7h5.21v6.82l4.67-.18q-2-2-4.13-4l3.05-3a40.43,40.43,0,0,1,4.67,4.31l-2.87,2.69,4.85-.18v4.68l-10.06.36v2.69l7.72-.36v4.49l-7.54.36.18,2.7,10.42-.54v4.49l-4,.18Zm-34.68,3.59-4.13,1.44c-.6-2-1.38-4.37-2.34-7l3.95-1.26C476.49,1049.89,477.33,1052.16,478.05,1054.32Zm20.13-5.75-7.91.54-.18-4.67,7.37-.36-.18-2.88-5.57.18v-4.49l5.39-.18V1034l-6.65.18-.18-4L487,1034a78.57,78.57,0,0,0-6.1-5.22,52.61,52.61,0,0,1-4,5.4h10.24v4.49h-3.95v2.69h5.39v4.5h-5.39v6.28l2.34-5,3.95,2c-1,1.92-2,3.89-3.23,5.93a24.66,24.66,0,0,0-3.06-1.62v2.7c1.56-.24,3.29-.54,5.21-.9v4.49a69.55,69.55,0,0,0,11.5-5.21A37.27,37.27,0,0,1,498.18,1048.57Zm10.24-.72-5,.36a12.82,12.82,0,0,0,.89,3.24Q506.26,1049.83,508.42,1047.85Z"/><path d="M538.07,1043.54a2.61,2.61,0,0,0-2.7-2.34,8.58,8.58,0,0,0-5.75,2.16l-6.65,7.19c-1.44-1.32-2.81-2.7-4.13-4.14a59.3,59.3,0,0,0,11.32-12,45.22,45.22,0,0,1-7-.18v-5.4a55.44,55.44,0,0,0,10.06.18,47.31,47.31,0,0,0,3.06-6.64q3,1.06,5.93,2.33-1.26,2-2.52,4.13a96.72,96.72,0,0,0,10.07-2c0,1.92,0,3.83.18,5.75a132.25,132.25,0,0,1-13.48,1.44,33.08,33.08,0,0,0-2.34,3.41q7.73-2.52,9.17,4.13,6.11-2.16,12-4.13c.59,1.92,1.19,3.77,1.79,5.57a92,92,0,0,0-13.47,4v6.29h-5.57v-4.49a25.09,25.09,0,0,0-5.39,3.23,3.11,3.11,0,0,0-1.08,2.16,2,2,0,0,0,.9,1.62c1.19,1,4,1.44,8.26,1.44a95.67,95.67,0,0,0,12.4-.9v5.93q-21.39,2.32-26.06-4.5a5.72,5.72,0,0,1-.71-5.21,8.9,8.9,0,0,1,3.23-4.31A34.25,34.25,0,0,1,538.07,1043.54Z"/><path d="M569,1026.47c2.16.48,4.19,1,6.11,1.62a47.79,47.79,0,0,0-2,12.93,62.45,62.45,0,0,0,.18,6.29q.72,4.86,1.8,5.21.72.18,1.26-.9A27.89,27.89,0,0,0,578,1047a12.72,12.72,0,0,0,4.49,3.78q-3.24,9.16-6.65,9.7-3.42.72-6.47-6.47a31.6,31.6,0,0,1-2.15-11.86Q566.8,1037.25,569,1026.47Zm25.7,2.15q6.83,8.46,9.52,23.72l-6.11,1.44q-1.08-11.49-8.26-23A35.78,35.78,0,0,1,594.67,1028.62Z"/><path d="M623.24,1023.05c1.91.49,3.83,1,5.75,1.62q-.72,2.7-1.62,5.57,4.49-.9,8.81-2l.35,5.57a109.62,109.62,0,0,1-11,2,227.91,227.91,0,0,1-10.6,27q-2.69-1.44-5.39-2.7a200.47,200.47,0,0,0,10.06-23.72h-6.82v-5.57a65.6,65.6,0,0,0,8.44.18Q622.34,1027,623.24,1023.05Zm1.61,27,5.4.36c-.48,2.87.47,4.61,2.87,5.21a43.61,43.61,0,0,0,16.35.18c.12,2,.18,4.07.18,6.11q-14.91,1.08-19.76-1.44a8.62,8.62,0,0,1-4.14-4.13Q624.85,1054.5,624.85,1050Zm23-13.66c-.12,1.8-.17,3.66-.17,5.57a74.68,74.68,0,0,0-18,.72,36.27,36.27,0,0,1-.72-5A66.36,66.36,0,0,1,647.85,1036.35Z"/><path d="M668.88,1023.05c2,.49,4,1,5.93,1.62q-.9,2.88-1.62,5.57a54.82,54.82,0,0,0,8.81-1.79l.35,5.39a85.29,85.29,0,0,1-10.78,2.15,263.94,263.94,0,0,1-10.6,26.78q-2.69-1.26-5.39-2.7a153.05,153.05,0,0,0,9.88-23.72c-2.39.12-4.73.18-7,.18,0-1.91.06-3.77.18-5.57h8.26Q668,1027,668.88,1023.05Zm1.8,27,5.39.36c-.12,3.11.95,4.91,3.23,5.39q5.57,1.26,16.17,0l.36,5.93q-15.45,1.08-20.12-1.44Q670.31,1057.19,670.68,1050Zm23-13.66c0,1.8-.07,3.6-.18,5.39a90.11,90.11,0,0,0-18,.72c-.24-1.67-.42-3.29-.54-4.85A75.44,75.44,0,0,1,693.68,1036.35Zm-5.58-11a40.41,40.41,0,0,1,5.58,4.67q-1.44,1.26-2.88,2.7a32.48,32.48,0,0,0-5.21-4.85Zm4.14-4a40.22,40.22,0,0,1,5.57,4.67l-3.06,2.69a38.32,38.32,0,0,0-5-4.85Z"/><path d="M704.46,1043.36c0-1.92.06-3.77.18-5.57a92.26,92.26,0,0,0,17.25-.18c-.6-1.08-1.14-2.16-1.62-3.23q-6.1.52-11.86.53v-5.39a87.23,87.23,0,0,0,9.7-.18q-.9-2.5-1.61-5.21l6.1-1.08q.72,2.88,1.62,5.4a88.73,88.73,0,0,0,9.35-2.34c.47,1.8.95,3.53,1.43,5.21a62.61,62.61,0,0,1-8.8,2.16,14.41,14.41,0,0,0,1.44,3,68.67,68.67,0,0,0,10.42-3l1.79,5.39a66,66,0,0,1-9.34,2.51,33,33,0,0,0,5.75,6.11l-3.23,5a26.7,26.7,0,0,0-11.32-2.33c-4.08,0-6.83.6-8.27,1.79a1.94,1.94,0,0,0-.72,2.16,4.81,4.81,0,0,0,2.52,2q5,2.14,19.58.36v5.75q-22.46,2.32-27.31-4.85a5.75,5.75,0,0,1-.54-5.4q1.8-5.2,10.24-6.28a37.29,37.29,0,0,1,10.61.89,50.7,50.7,0,0,1-3.06-4.13A129.7,129.7,0,0,1,704.46,1043.36Z"/><path d="M772,1049.65a48.42,48.42,0,0,1,14.73,7c-1.32,1.67-2.57,3.35-3.77,5a36,36,0,0,0-11-6.47c0,2.76-.48,4.61-1.44,5.57a8.94,8.94,0,0,1-5,2.16,19.27,19.27,0,0,1-6.83-.18,8.66,8.66,0,0,1-4.67-2.34,6.69,6.69,0,0,1-2.16-4.85,6.33,6.33,0,0,1,2.16-4.49q2.7-2.7,9-2.7a29.32,29.32,0,0,1,3.24.18c-.12-1.32-.18-2.75-.18-4.31h-3.41c-3.84,0-6.41-.66-7.73-2a8.11,8.11,0,0,1-2-5l5.57-.36q0,2,.9,2.16a18.87,18.87,0,0,0,6.47.36v-4.5a71.84,71.84,0,0,1-15.09-1.25l1.07-5.39a62.6,62.6,0,0,0,14.2,1.25v-6.47c2.16,0,4.31.07,6.47.18q-.36,2.34-.54,5.93a74.75,74.75,0,0,0,12.58-1.79c.12,2,.18,4,.18,5.75a116.35,116.35,0,0,1-12.94,1.43v4.68q5.38-.36,10.78-1.26l.36,5.39q-5.57.54-11.14.9C771.84,1046.05,771.9,1047.85,772,1049.65ZM758.9,1054q-1.62.72-1.62,1.8a2.06,2.06,0,0,0,1.26,1.79,7.7,7.7,0,0,0,3.78.72,4.54,4.54,0,0,0,3.23-.89q.9-.9.72-3.78C762.91,1053.12,760.46,1053.24,758.9,1054Z"/><path d="M802,1024.49l6.47.36q-.54,6.66-.9,11.5a139.07,139.07,0,0,0-.54,14q.18,3.77,2.33,5.21a7.43,7.43,0,0,0,6.29.54,17,17,0,0,0,7-4.5,31.25,31.25,0,0,0,6.11-8.62,12.68,12.68,0,0,0,5.21,3.59q-7.18,11.87-15.63,14.56a19.2,19.2,0,0,1-5.75.9,11.16,11.16,0,0,1-8.27-3.06c-2-2-3.11-4.91-3.23-8.62q-.18-6.48.18-13.84Q801.67,1029.35,802,1024.49Z"/><path d="M853.24,1023.05c1.91.49,3.83,1,5.75,1.62q-.72,2.7-1.62,5.57,4.49-.9,8.81-2l.35,5.57a109.62,109.62,0,0,1-11,2,227.91,227.91,0,0,1-10.6,27q-2.69-1.44-5.39-2.7a200.47,200.47,0,0,0,10.06-23.72h-6.82v-5.57a65.6,65.6,0,0,0,8.44.18Q852.34,1027,853.24,1023.05Zm1.61,27,5.4.36c-.48,2.87.47,4.61,2.87,5.21a43.61,43.61,0,0,0,16.35.18c.12,2,.18,4.07.18,6.11q-14.91,1.08-19.76-1.44a8.62,8.62,0,0,1-4.14-4.13Q854.85,1054.5,854.85,1050Zm23-13.66c-.12,1.8-.17,3.66-.17,5.57a74.68,74.68,0,0,0-18,.72,36.27,36.27,0,0,1-.72-5A66.36,66.36,0,0,1,877.85,1036.35Z"/><path d="M900.48,1026.47l1.08,1.08v9.52l-2,13.12h-2.33l-2.16-13.3v-9.34l1.08-1.08Zm0,27,1.08,1.08v4l-1.08,1.08h-4l-1.08-1.08v-4l1.08-1.08Z"/><rect class="cls-6" x="338.6" y="1118" width="374" height="121" rx="23.73"/><path d="M419.29,1202.17a28.08,28.08,0,0,0-2.84-6.35,59.17,59.17,0,0,0,19.69-4.37,44.63,44.63,0,0,1-7-8.53H425.2v-5.47H453l.66-.44,4.37,4.16a68.78,68.78,0,0,1-10.28,10.28q7,3.27,19,4.81a20.13,20.13,0,0,0-3.28,6.34q-13.56-2.4-21.66-7Q429.13,1201.29,419.29,1202.17Zm40.47-40.69-4.37,6.78h9.84v12.25h-5.91V1174H423.45v6.78h-5.91v-12.47h8.1a27.9,27.9,0,0,0-3.07-6.34l5.25-2a31.77,31.77,0,0,1,3.28,6.78l-4.81,1.53h22.1l5-9.63Zm2.63-4.16q-22.54,2.19-41.57,2.41a25.89,25.89,0,0,0-2.18-5.69h12.25a159.56,159.56,0,0,0,28-2.41Zm-17.94,9.19L439,1168q-1.53-3.72-3.06-6.78l5.25-1.75A52.78,52.78,0,0,1,444.45,1166.51Zm3.5,16.41h-11.6a19.61,19.61,0,0,0,5.47,5.46A24.3,24.3,0,0,0,448,1182.92Z"/><path d="M479,1155.35q3.5,1.1,7.22,2.19-6.35,21.43-1.31,39.16-3.51,1.08-6.78,2.18a76.54,76.54,0,0,1-2.19-19A130.78,130.78,0,0,1,479,1155.35Zm30.19,37.19q-3.94,6.57-12.69,9.84a16.4,16.4,0,0,0-4.16-6.34q6.78-2.62,9.41-5.69,3.72-4.36,3.72-19-8.1.45-14.22.44v-7q7,.43,14,.22c-.15-3.79-.36-7.58-.66-11.38h7.88v10.5c3.06-.43,6.12-1,9.19-1.75v7.22a76.3,76.3,0,0,1-9,1.31Q512.7,1186.63,509.2,1192.54Z"/><path d="M580.07,1196a27,27,0,0,0-3.93,6.13A47.1,47.1,0,0,1,565.2,1193a47.66,47.66,0,0,1-10.5,9.19,22.87,22.87,0,0,0-3.28-5v5h-6.35v-10.5l-15.75,3.71-1.53-6.78,4.16-.43v-29.1h-3.5v-5.69h27.34v5.69h-4.37v37a50.17,50.17,0,0,0,10.06-8.53,55.91,55.91,0,0,1-3.72-10.28,60.65,60.65,0,0,1-1.09-10.72h-3.28v-6.34h19l.65-.44,4.38,3.5q-1.76,8.31-3.06,12.69a49.94,49.94,0,0,1-5.25,11.59A60.19,60.19,0,0,0,580.07,1196Zm-41.78-31.5h6.78v-5.47h-6.78Zm0,10.5h6.78v-4.81h-6.78Zm0,11.81q4.15-.64,6.78-1.31v-4.81h-6.78Zm27.13-6.12a58,58,0,0,0,4.15-14.22h-6.78A45.48,45.48,0,0,0,565.42,1180.73Z"/><path d="M618.79,1153.38c1.31,2,2.63,4,3.94,5.91a128.12,128.12,0,0,0-15.53,13.34,28.08,28.08,0,0,1,7.87-1.09q7.66,0,12,4.38a11.84,11.84,0,0,1,3.5,8.75,15,15,0,0,1-4.81,10.93q-5,5-14.44,5-8.52,0-12.25-3.71-3.93-3.95-1.75-8.54c1.17-2.47,3.72-3.79,7.66-3.93q8.75-.23,12.69,9,6.12-3.29,5.47-9.19a7.58,7.58,0,0,0-2-4.38,7.84,7.84,0,0,0-3.94-2.4q-13.35-3.29-26.47,10.72c-1.46-1.75-2.92-3.58-4.37-5.47q12.24-10.07,24.72-22.1A82.9,82.9,0,0,1,595.6,1163l-.43-6.78A98.57,98.57,0,0,0,618.79,1153.38Zm-13.34,36.32a2.86,2.86,0,0,0-2.41.87,1.91,1.91,0,0,0,.44,2.85,11.71,11.71,0,0,0,4.59,1.53,23,23,0,0,0,3.5.22q-1.76-4.15-3.93-5A5.92,5.92,0,0,0,605.45,1189.7Z"/><path class="cls-7" d="M242.72,232.44a71.2,71.2,0,0,1,56.39,58.33,72.06,72.06,0,0,1-32.56,73.15c-1.88,1.2-3.83,2.3-5.83,3.32l-1.36.67-1.14.54a70.64,70.64,0,0,1-12.31,4.36l-.83.21-.62.14-.08,0-1.29.29-.73.15-.44.08-.56.11-.31.06-.7.12-1.19.2-.87.12-1,.14-.28,0-.37,0-1.12.13-.73.07-.94.08-1.15.08-.74,0c-.64,0-1.27.06-1.91.07l-1,0h-1a72,72,0,0,1-72-71.94V303A72.09,72.09,0,0,1,242.72,232.44Z"/><path class="cls-8" d="M273.81,275a40.83,40.83,0,0,0-9.76,10.62c-8,12.19-12.79,29.62-15.59,45.92-.72,4.16-1.31,8.25-1.79,12.15-1.67,13.44-2.1,24.73-2.21,29.55l-1.29.29c.07-3.69.34-11.69,1.28-21.65.12-1.28.25-2.6.4-3.95q.24-2.28.54-4.65c.4-3.28.88-6.67,1.44-10.11q.13-.82.27-1.62c3.55-20.84,9-36.66,16.27-47.28A41.68,41.68,0,0,1,273.05,274Z"/><path class="cls-8" d="M273,331.75c-5.54,4.07-8.64,13-10.38,21.76a121,121,0,0,0-1.84,13.8l-1.36.67a115.4,115.4,0,0,1,2.1-15.7c1.82-8.64,5-17.4,10.73-21.56Z"/><circle class="cls-8" cx="280.97" cy="268.57" r="6.41"/><circle class="cls-8" cx="278.91" cy="323.75" r="6.41"/><path class="cls-8" d="M255.52,279.33A28.51,28.51,0,0,1,253.88,294,25.92,25.92,0,0,1,249,266.17,28.56,28.56,0,0,1,255.52,279.33Z"/><path class="cls-8" d="M276.83,297.54a28.58,28.58,0,0,1-14.67,1,26.1,26.1,0,0,1,26.49-9.69A28.58,28.58,0,0,1,276.83,297.54Z"/><path class="cls-8" d="M278.07,346.41a20,20,0,0,1-10.29.65,18.18,18.18,0,0,1,18.57-6.79A20.06,20.06,0,0,1,278.07,346.41Z"/><path class="cls-9" d="M194.92,269.46c10.41-17.59,31-18.41,31-18.41s20.08-2.57,33,24.23c12,25,28.57,49.09,2.66,54.94l-4.67-14.56L254,331.3a99.93,99.93,0,0,1-11.08.19c-27.75-.89-54.16.26-53.31-9.69C190.72,308.57,184.9,286.39,194.92,269.46Z"/><circle class="cls-10" cx="227.96" cy="291.19" r="26.34"/><path class="cls-10" d="M240.64,305.82s-10.73,31.22,2,40-20.49,14.63-29.27,8.78S197.72,339,197.72,339s22.44-22.44,17.56-35.12Z"/><path class="cls-9" d="M260.15,352.58l-1.85,15.87A70.64,70.64,0,0,1,246,372.81l-.83.21-.62.14-.08,0-1.29.29-.73.15-.44.08-.56.11-.31.06-.7.12-1.19.2-.87.12-1,.14-.28,0-.36,0-1.12.13-.73.07-.94.08-1.15.08-.74,0c-.64,0-1.27.06-1.91.07l-1,0h-1a72.08,72.08,0,0,1-62.92-36.95,95.57,95.57,0,0,1,10-6,12.58,12.58,0,0,1,4.31-1.07,49.22,49.22,0,0,1,13.18.86c3.95.75,7.35,1.8,8.85,2.8,3.91,2.58,19.51,11.07,19.51,11.07s13.66,1.95,19.17-2.12h0c1.3-1,3.1-1,5.09-.42.41.12.84.26,1.28.42a25.67,25.67,0,0,1,3.51,1.68l.07,0c.4.22.8.46,1.19.7A65.66,65.66,0,0,1,260.15,352.58Z"/><path class="cls-9" d="M181.37,357.81c-.63-11.72-1.35-21.32-1.78-26.72a49.25,49.25,0,0,1,13.18.87c3.52,7.06,11.47,23.37,18.78,41.21A71.83,71.83,0,0,1,181.37,357.81Z"/><path class="cls-9" d="M249.91,345.33l.26.13C250.15,345.74,250.08,345.91,249.91,345.33Z"/><path class="cls-9" d="M250.25,345.42a.28.28,0,0,1,0,.09l-.09-.05a.25.25,0,0,1,0-.08C250.2,345,250.17,344.56,250.25,345.42Z"/><path class="cls-9" d="M266.63,364c-1.89,1.2-3.83,2.3-5.83,3.32l-1.36.67q-.57.28-1.14.54A70.64,70.64,0,0,1,246,372.88c3.07-9.91,5-19.7,4.27-27.37l1.18.61,5.68,2.92a17.79,17.79,0,0,1,4.42,3.24,14.21,14.21,0,0,1,1.1,1.23,17.52,17.52,0,0,1,4,10.3C266.62,363.87,266.63,363.93,266.63,364Z"/><path class="cls-9" d="M202.37,267.76l20.35-10.66,12.77,2a22.85,22.85,0,0,1,18.77,17.52l2.38,10.55-14.47-.56-4-9.43v9.28l-6.68-.26-3.87-15-2.43,16-23.74-.49Z"/><path class="cls-7" d="M272.06,511.65a44.61,44.61,0,0,1-3.61,17.61l-.14.34a44.79,44.79,0,0,1-48.74,26.1l-.8-.14a44.82,44.82,0,0,1-8.1-2.39l-1.26-.53c-.29-.12-.57-.25-.86-.39a44.73,44.73,0,1,1,63.51-40.6Z"/><path class="cls-8" d="M219.57,555.7l-.8-.14A185.3,185.3,0,0,0,216,529.19a97.48,97.48,0,0,0-4.83-17.55,53,53,0,0,0-2.52-5.53,28.7,28.7,0,0,0-8-9.91l.47-.65a27.62,27.62,0,0,1,7.17,8.22c.64,1.05,1.25,2.18,1.84,3.38s1.22,2.64,1.79,4.08c.37.91.72,1.86,1.06,2.84a102.15,102.15,0,0,1,3.76,14.55c.23,1.21.45,2.44.66,3.7A189.05,189.05,0,0,1,219.57,555.7Z"/><path class="cls-8" d="M209.41,552.64c-.29-.12-.57-.25-.86-.39A63.93,63.93,0,0,0,206.84,542a34.44,34.44,0,0,0-1.56-4.66,13.93,13.93,0,0,0-4.21-5.89l.47-.64a14.64,14.64,0,0,1,4.4,6,41.68,41.68,0,0,1,2.64,9.29C209,548.45,209.25,550.71,209.41,552.64Z"/><circle class="cls-8" cx="196.14" cy="492.2" r="3.98"/><circle class="cls-8" cx="197.42" cy="526.47" r="3.98"/><path class="cls-8" d="M211.94,498.88a17.74,17.74,0,0,0,1,9.08A16.11,16.11,0,0,0,216,490.71,17.74,17.74,0,0,0,211.94,498.88Z"/><path class="cls-8" d="M198.71,510.19a17.83,17.83,0,0,0,9.11.6,16.17,16.17,0,0,0-16.45-6A17.76,17.76,0,0,0,198.71,510.19Z"/><path class="cls-8" d="M197.94,540.54a12.49,12.49,0,0,0,6.39.41,11.26,11.26,0,0,0-11.53-4.22A12.37,12.37,0,0,0,197.94,540.54Z"/><circle class="cls-10" cx="227.24" cy="504.12" r="17.44"/><path class="cls-10" d="M220.43,517.47s2.18,10.35,2.18,11.44,10.35,6,10.35,6l9.26-1.63,3.27-9.81S240,515.29,240,512Z"/><path class="cls-9" d="M268.45,529.26l-.14.34a44.79,44.79,0,0,1-48.74,26.1l-.8-.14a44.82,44.82,0,0,1-8.1-2.39l-1.26-.53c-.29-.12-.57-.25-.86-.39a43.89,43.89,0,0,1-7.31-4.27l-2.06-6,1.16-.89,2.39-1.82,2.55-1.95.66-.51,10-7.63.73-.57,5.21-4h0s5.62,9.16,13.79,6.44a11.28,11.28,0,0,0,8-10.54Z"/><path class="cls-9" d="M212.12,490.07s5.53-12,16.14-9.23,16.61,6.92,17.07,11.08a58.37,58.37,0,0,1-.23,10.38s-1.15-8.54-8.53-6.69-18.92.46-18.92.46l-1.84,16.61s-2.08-3-4.38-1.16S204.74,493.76,212.12,490.07Z"/><path class="cls-9" d="M210.67,553.18c-.42-.17-.84-.34-1.26-.53l-.86-.38A45,45,0,0,1,197,544.5a15.51,15.51,0,0,1,2.22-2.5h8.17l1.23,4.12Z"/><path class="cls-9" d="M261.29,528.36l7,1.24a44.71,44.71,0,0,1-7.51,11.72Z"/><path class="cls-7" d="M272.06,679.65a44.61,44.61,0,0,1-3.61,17.61l-.14.34a44.79,44.79,0,0,1-48.74,26.1l-.8-.14a44.82,44.82,0,0,1-8.1-2.39l-1.26-.53c-.29-.12-.57-.25-.86-.39a44.73,44.73,0,1,1,63.51-40.6Z"/><path class="cls-8" d="M219.57,723.7l-.8-.14A185.3,185.3,0,0,0,216,697.19a97.48,97.48,0,0,0-4.83-17.55,53,53,0,0,0-2.52-5.53,28.7,28.7,0,0,0-8-9.91l.47-.65a27.62,27.62,0,0,1,7.17,8.22c.64,1.05,1.25,2.18,1.84,3.38s1.22,2.64,1.79,4.08c.37.91.72,1.86,1.06,2.84a102.15,102.15,0,0,1,3.76,14.55c.23,1.21.45,2.44.66,3.7A189.05,189.05,0,0,1,219.57,723.7Z"/><path class="cls-8" d="M209.41,720.64c-.29-.12-.57-.25-.86-.39A63.93,63.93,0,0,0,206.84,710a34.44,34.44,0,0,0-1.56-4.66,13.93,13.93,0,0,0-4.21-5.89l.47-.64a14.64,14.64,0,0,1,4.4,6,41.68,41.68,0,0,1,2.64,9.29C209,716.45,209.25,718.71,209.41,720.64Z"/><circle class="cls-8" cx="196.14" cy="660.2" r="3.98"/><circle class="cls-8" cx="197.42" cy="694.47" r="3.98"/><path class="cls-8" d="M211.94,666.88a17.74,17.74,0,0,0,1,9.08A16.11,16.11,0,0,0,216,658.71,17.74,17.74,0,0,0,211.94,666.88Z"/><path class="cls-8" d="M198.71,678.19a17.83,17.83,0,0,0,9.11.6,16.17,16.17,0,0,0-16.45-6A17.76,17.76,0,0,0,198.71,678.19Z"/><path class="cls-8" d="M197.94,708.54a12.49,12.49,0,0,0,6.39.41,11.26,11.26,0,0,0-11.53-4.22A12.37,12.37,0,0,0,197.94,708.54Z"/><circle class="cls-10" cx="227.24" cy="672.12" r="17.44"/><path class="cls-10" d="M220.43,685.47s2.18,10.35,2.18,11.44,10.35,6,10.35,6l9.26-1.63,3.27-9.81S240,683.29,240,680Z"/><path class="cls-9" d="M268.45,697.26l-.14.34a44.79,44.79,0,0,1-48.74,26.1l-.8-.14a44.82,44.82,0,0,1-8.1-2.39l-1.26-.53c-.29-.12-.57-.25-.86-.39a43.89,43.89,0,0,1-7.31-4.27l-2.06-6,1.16-.89,2.39-1.82,2.55-1.95.66-.51,10-7.63.73-.57,5.21-4h0s5.62,9.16,13.79,6.44a11.28,11.28,0,0,0,8-10.54Z"/><path class="cls-9" d="M212.12,658.07s5.53-12,16.14-9.23,16.61,6.92,17.07,11.08a58.37,58.37,0,0,1-.23,10.38s-1.15-8.54-8.53-6.69-18.92.46-18.92.46l-1.84,16.61s-2.08-3-4.38-1.16S204.74,661.76,212.12,658.07Z"/><path class="cls-9" d="M210.67,721.18c-.42-.17-.84-.34-1.26-.53l-.86-.38A45,45,0,0,1,197,712.5a15.51,15.51,0,0,1,2.22-2.5h8.17l1.23,4.12Z"/><path class="cls-9" d="M261.29,696.36l7,1.24a44.71,44.71,0,0,1-7.51,11.72Z"/><path class="cls-3" d="M268.06,229.8H184.7a3.84,3.84,0,0,1-3.18-1.69c-11-16.12-11.84-47.15-11.9-51.75,0-.18,0-.37,0-.55a3.86,3.86,0,0,1,3.84-3.85h0a3.86,3.86,0,0,1,3.85,3.84s0,.25,0,.65a20.4,20.4,0,0,0,40.79-.65A3.84,3.84,0,0,1,222,172h8.86a3.84,3.84,0,0,1,3.84,3.84,20.4,20.4,0,0,0,40.79.62c0-.38,0-.6,0-.62A3.86,3.86,0,0,1,279.3,172h0a3.83,3.83,0,0,1,3.83,3.83v.57c-.07,4.6-.91,35.63-11.91,51.76A3.86,3.86,0,0,1,268.06,229.8Z"/><path class="cls-3" d="M279.42,172h0a3.85,3.85,0,0,0-3.85,3.84s0,.24,0,.62a20.4,20.4,0,0,1-40.79-.62,3.84,3.84,0,0,0-3.84-3.84H226.5V229.8h41.67a3.83,3.83,0,0,0,3.18-1.68c11-16.13,11.85-47.16,11.91-51.76,0-.18,0-.37,0-.55A3.86,3.86,0,0,0,279.42,172Z"/><path class="cls-3" d="M226.38,159a12.41,12.41,0,1,0,12.42,12.41A12.43,12.43,0,0,0,226.38,159Z"/><path class="cls-3" d="M226.5,159v24.82a12.41,12.41,0,0,0,0-24.82Z"/><path class="cls-3" d="M173.57,168.54A12.41,12.41,0,1,0,186,181,12.42,12.42,0,0,0,173.57,168.54Z"/><path class="cls-3" d="M279.19,168.54A12.41,12.41,0,1,0,291.6,181,12.42,12.42,0,0,0,279.19,168.54Z"/><path class="cls-3" d="M268,242.28H184.73a3.84,3.84,0,0,1-3.84-3.84V227h91v11.45A3.84,3.84,0,0,1,268,242.28Z"/><path class="cls-3" d="M226.5,242.28H268a3.84,3.84,0,0,0,3.85-3.84V227H226.5Z"/><circle class="cls-11" cx="373.51" cy="562.27" r="74"/></g></g></svg>