<svg xmlns="http://www.w3.org/2000/svg" viewBox="0 0 402.44 487.73"><defs><style>.cls-1{fill:#8c8c8c;}.cls-2{fill:#ffcb64;}.cls-3,.cls-5{fill:none;stroke-linecap:round;stroke-linejoin:round;}.cls-3{stroke:#fff59c;stroke-width:17.61px;}.cls-4{fill:#fff59c;}.cls-5{stroke:#333;stroke-width:3.91px;opacity:0.26;}</style></defs><title>アセット 1</title><g id="レイヤー_2" data-name="レイヤー 2"><g id="レイヤー_1-2" data-name="レイヤー 1"><path class="cls-1" d="M227.33,380.33,98.47,313.48A8.57,8.57,0,0,0,87,317.12L74.79,340.58a8.55,8.55,0,0,0,3.65,11.5l24.39,12.66a9,9,0,0,1,3.82,12.06L69,449.44a8.44,8.44,0,0,0,3.6,11.36l50.1,26a8.45,8.45,0,0,0,11.36-3.6l37.69-72.63a9,9,0,0,1,12.06-3.83l23.52,12.21a8.56,8.56,0,0,0,11.51-3.65L231,391.84A8.55,8.55,0,0,0,227.33,380.33Z"/><path class="cls-2" d="M334.05,1.88,355.8,13.16A16.66,16.66,0,0,1,363,35.46L199.2,360.23l-65.06-33.75L311.82,8.54A16.67,16.67,0,0,1,334.05,1.88Z"/><path class="cls-3" d="M262.86,158.67c38,24.07,75.27,48.61,113.35,73.3"/><path class="cls-3" d="M272.88,93.43c40.48,25.08,80.22,52.22,120.76,77.83"/><path class="cls-3" d="M175.56,30.36c22.2,14.43,44.2,29.2,67.4,43.7"/><path class="cls-3" d="M246.21,238.73q15,9.72,30.12,19.31"/><path class="cls-3" d="M116.78,155.14c34.07,20.9,67.32,43.56,101.06,65.19"/><path class="cls-3" d="M48.49,111.08c13.41,8.53,26.92,16.88,40,25.85"/><path class="cls-3" d="M17.86,91.36a18.1,18.1,0,0,1,3.82,2.13"/><path class="cls-4" d="M232.62,124.46l-3.14,9.27a1.69,1.69,0,0,0,.24,1.52l5.85,7.84a1.65,1.65,0,0,1-1.34,2.64l-9.78-.12a1.65,1.65,0,0,0-1.38.7l-5.64,8a1.65,1.65,0,0,1-2.93-.46l-2.91-9.34a1.66,1.66,0,0,0-1.08-1.09l-9.35-2.9a1.65,1.65,0,0,1-.46-2.93l8-5.65a1.7,1.7,0,0,0,.7-1.37l-.13-9.79a1.65,1.65,0,0,1,2.64-1.34l7.84,5.85a1.69,1.69,0,0,0,1.52.24l9.27-3.14A1.65,1.65,0,0,1,232.62,124.46Z"/><path class="cls-4" d="M32.62,80.46l-3.14,9.27a1.69,1.69,0,0,0,.24,1.52l5.85,7.84a1.65,1.65,0,0,1-1.34,2.64l-9.78-.12a1.65,1.65,0,0,0-1.38.7l-5.64,8a1.65,1.65,0,0,1-2.93-.46l-2.91-9.34a1.66,1.66,0,0,0-1.08-1.09L1.16,96.5A1.65,1.65,0,0,1,.7,93.57l8-5.65a1.7,1.7,0,0,0,.7-1.37l-.13-9.79a1.65,1.65,0,0,1,2.64-1.34l7.84,5.85a1.69,1.69,0,0,0,1.52.24l9.27-3.14A1.65,1.65,0,0,1,32.62,80.46Z"/><path class="cls-5" d="M109.41,374.74l61.6,32S134.86,397.85,109.41,374.74Z"/></g></g></svg>