<svg xmlns="http://www.w3.org/2000/svg" viewBox="0 0 276.5 276.42"><defs><style>.cls-1{fill:#e6e6e6;}</style></defs><title>アセット 8</title><g id="レイヤー_2" data-name="レイヤー 2"><g id="レイヤー_1-2" data-name="レイヤー 1"><path class="cls-1" d="M108.27,86.59h60.5a21.6,21.6,0,0,1,21.59,21.6v60.47a21.59,21.59,0,0,1-21.59,21.59h-60.5a21.59,21.59,0,0,1-21.59-21.59V108.19A21.6,21.6,0,0,1,108.27,86.59Z"/><path class="cls-1" d="M138.25,0C62,0,0,62,0,138.21S62,276.42,138.25,276.42s138.25-62,138.25-138.21S214.48,0,138.25,0Zm0,241.87A103.66,103.66,0,1,1,241.94,138.21,103.79,103.79,0,0,1,138.25,241.87Z"/></g></g></svg>